/* XPM */
static char * baltoy_xpm[] = {
"64 64 296 2",
"  	c #EBE4C8",
". 	c #E1D6A7",
"+ 	c #E1D5A5",
"@ 	c #E1D5A6",
"# 	c #E1D4A5",
"$ 	c #E0D3A4",
"% 	c #E0D2A3",
"& 	c #DFD1A2",
"* 	c #DDCA9D",
"= 	c #DBC499",
"- 	c #DBC398",
"; 	c #DCC79B",
"> 	c #DFCEA1",
", 	c #DFD2A3",
"' 	c #DFCFA1",
") 	c #DCC89C",
"! 	c #DCC59A",
"~ 	c #DCC69A",
"{ 	c #DBC599",
"] 	c #DECEA0",
"^ 	c #DFD1A3",
"/ 	c #DECD9F",
"( 	c #DCC99C",
"_ 	c #E1D5A7",
": 	c #E5DBB6",
"< 	c #D9C983",
"[ 	c #D8C880",
"} 	c #D8C77F",
"| 	c #D6C47C",
"1 	c #D4BD75",
"2 	c #D3B972",
"3 	c #D3BA72",
"4 	c #D4BA72",
"5 	c #D1B56E",
"6 	c #D1B169",
"7 	c #D1B36B",
"8 	c #D2B870",
"9 	c #D3BB73",
"0 	c #D3B971",
"a 	c #D2B56D",
"b 	c #D3B871",
"c 	c #D2B66E",
"d 	c #D0B26A",
"e 	c #D1B56D",
"f 	c #D4BB73",
"g 	c #D2B76F",
"h 	c #D3B870",
"i 	c #D2B46D",
"j 	c #D4BC74",
"k 	c #D7C77F",
"l 	c #D9C984",
"m 	c #E6DCB7",
"n 	c #D9CA85",
"o 	c #D6C27A",
"p 	c #D5BF77",
"q 	c #D1B36C",
"r 	c #D0B068",
"s 	c #D4BA73",
"t 	c #D1B46C",
"u 	c #D4BB74",
"v 	c #D6C17A",
"w 	c #D6C37B",
"x 	c #D5BF78",
"y 	c #D6C27B",
"z 	c #D3BA73",
"A 	c #D2B66F",
"B 	c #D2B871",
"C 	c #D4BE76",
"D 	c #D6C179",
"E 	c #D5C078",
"F 	c #D7C57D",
"G 	c #D1B66E",
"H 	c #D4BC75",
"I 	c #D9C781",
"J 	c #D9C982",
"K 	c #DACA84",
"L 	c #DACA83",
"M 	c #D7C57E",
"N 	c #D6C17B",
"O 	c #D7C27C",
"P 	c #D7C67E",
"Q 	c #D9CA82",
"R 	c #DACB84",
"S 	c #D9C881",
"T 	c #D7C37C",
"U 	c #D6C07A",
"V 	c #D7C47D",
"W 	c #D7C07A",
"X 	c #D7C27B",
"Y 	c #D6BD78",
"Z 	c #D3B770",
"` 	c #DBCB86",
" .	c #E0D390",
"..	c #DED18D",
"+.	c #E0D490",
"@.	c #DED08C",
"#.	c #DFD38F",
"$.	c #DDCF8B",
"%.	c #DFD18E",
"&.	c #DECF8C",
"*.	c #D9C981",
"=.	c #D9CA83",
"-.	c #DED28D",
";.	c #E0D491",
">.	c #DDD08B",
",.	c #E0D591",
"'.	c #DFD28F",
").	c #DCCD87",
"!.	c #D8C981",
"~.	c #DBCD87",
"{.	c #DCCE8A",
"].	c #DFD08E",
"^.	c #D1B26A",
"/.	c #D7C37B",
"(.	c #D5C179",
"_.	c #DBCC86",
":.	c #DFD28D",
"<.	c #DCCF89",
"[.	c #DCCF8A",
"}.	c #E1D491",
"|.	c #E1D592",
"1.	c #DCCE88",
"2.	c #DDD08A",
"3.	c #E0D592",
"4.	c #E1D591",
"5.	c #DFD490",
"6.	c #DDCF8A",
"7.	c #DCCE89",
"8.	c #DFD28E",
"9.	c #DED08B",
"0.	c #E0D492",
"a.	c #D8C681",
"b.	c #DBCD88",
"c.	c #DED18C",
"d.	c #DFD390",
"e.	c #DDD08C",
"f.	c #DDCF89",
"g.	c #DDD18C",
"h.	c #DDD18D",
"i.	c #DED18E",
"j.	c #D7C581",
"k.	c #E5DCB7",
"l.	c #D5C07C",
"m.	c #D1B26B",
"n.	c #D5BD76",
"o.	c #DCCD89",
"p.	c #DED28F",
"q.	c #DACB85",
"r.	c #DED28E",
"s.	c #D8C881",
"t.	c #DACC85",
"u.	c #DFD38E",
"v.	c #D4BD79",
"w.	c #D0B169",
"x.	c #D8C980",
"y.	c #DBCC85",
"z.	c #D2B673",
"A.	c #D8C87F",
"B.	c #D4B975",
"C.	c #D6C27E",
"D.	c #E5D9B5",
"E.	c #D5BD79",
"F.	c #D5BD75",
"G.	c #D7C682",
"H.	c #E2D2B0",
"I.	c #D2B572",
"J.	c #E1CEAD",
"K.	c #D1B26F",
"L.	c #DDD18B",
"M.	c #605050",
"N.	c #DBCD86",
"O.	c #D9C980",
"P.	c #D7C580",
"Q.	c #E1CEAE",
"R.	c #D7C47C",
"S.	c #DCCD88",
"T.	c #E0E0A8",
"U.	c #98A040",
"V.	c #E1D593",
"W.	c #D8C982",
"X.	c #D7C681",
"Y.	c #E1D693",
"Z.	c #D9CB83",
"`.	c #D0B16A",
" +	c #D6C07C",
".+	c #D8C67F",
"++	c #DFD48F",
"@+	c #DACC86",
"#+	c #E1D692",
"$+	c #D5BF7C",
"%+	c #D8C57E",
"&+	c #DACB83",
"*+	c #C0C060",
"=+	c #DED18B",
"-+	c #D7C47F",
";+	c #D2B770",
">+	c #D2B56E",
",+	c #E2D1AF",
"'+	c #D1B471",
")+	c #E4D8B4",
"!+	c #D4BB77",
"~+	c #D2B46C",
"{+	c #D5BE7B",
"]+	c #D5BF7B",
"^+	c #D84060",
"/+	c #F09050",
"(+	c #D6C17D",
"_+	c #D1B46D",
":+	c #D8C682",
"<+	c #E0D38F",
"[+	c #DCCE87",
"}+	c #DBCE88",
"|+	c #E1D694",
"1+	c #D8C780",
"2+	c #D6C07D",
"3+	c #D8C580",
"4+	c #D7C37E",
"5+	c #D8C782",
"6+	c #D5BE76",
"7+	c #D5BE7A",
"8+	c #D6C37C",
"9+	c #E3D6B3",
"0+	c #D3BA76",
"a+	c #E1CFAE",
"b+	c #D1B370",
"c+	c #D1B16A",
"d+	c #D6C57D",
"e+	c #D4BD76",
"f+	c #DFD18D",
"g+	c #DBCE87",
"h+	c #D6C079",
"i+	c #D6C17E",
"j+	c #E2D694",
"k+	c #D9CB84",
"l+	c #D6C37E",
"m+	c #E3D4B1",
"n+	c #D3B773",
"o+	c #808060",
"p+	c #E5DAB6",
"q+	c #D4BD7A",
"r+	c #D5BD7A",
"s+	c #D3B774",
"t+	c #DDCE89",
"u+	c #D6C078",
"v+	c #DBCB85",
"w+	c #D9C780",
"x+	c #D9C680",
"y+	c #D0B069",
"z+	c #D3B975",
"A+	c #E2D3B1",
"B+	c #D8C883",
"C+	c #DBCC87",
"D+	c #D9CA84",
"E+	c #D6BE78",
"F+	c #DAC682",
"G+	c #DAC983",
"H+	c #DBC984",
"I+	c #DAC984",
"J+	c #DBC885",
"K+	c #D7C37D",
"L+	c #D3B66F",
"M+	c #D5C079",
"N+	c #D6BF78",
"O+	c #D3B76F",
"P+	c #D3BB74",
"Q+	c #E7DEBB",
"R+	c #DBCC8C",
"S+	c #DACA87",
"T+	c #DACB88",
"U+	c #DAC986",
"V+	c #D8C684",
"W+	c #D7C482",
"X+	c #D7C280",
"Y+	c #D4BB79",
"Z+	c #D2B473",
"`+	c #D2B675",
" @	c #D4B978",
".@	c #D3B777",
"+@	c #D3B776",
"@@	c #D3B877",
"#@	c #D5BC7C",
"$@	c #D7C381",
"%@	c #D4BB7B",
"&@	c #D2B574",
"*@	c #D5BE7D",
"=@	c #D6BF7E",
"-@	c #D4BA78",
";@	c #D3B878",
">@	c #D4B878",
",@	c #D6C07F",
"'@	c #D7C07E",
")@	c #D2B472",
"!@	c #D2B573",
"~@	c #D8C583",
"{@	c #D9C986",
"]@	c #DACB8A",
"  . + @ @ @ # $ % % $ & * = - - - - ; > % , ' ) ! ~ { ! ! = ~ ] % > ; - - - - = * ^ $ , / ! ! ! ! ~ { = ( & $ % , $ # @ @ @ + _ ",
": < [ [ } } | 1 2 3 4 2 5 6 6 6 6 6 7 8 3 9 0 a b 3 c 2 b d 7 8 9 b 7 6 6 6 6 6 e 3 f f g a 9 h g f e 6 i 3 3 4 9 j | k } [ [ l ",
"m n [ } o p 9 q r r 7 b s s s s s f h t c 4 f u v w x y v f 4 f f f s 4 s s s z A q B f s C | D E F C s s 0 t c g t f p o } [ n ",
"m n } o h a g A G G H I J J K J L K M N O P P P } } } } } P P } Q R S L K S R J T U V P P k } } k [ P P P F W X T Y 2 e Z D } n ",
"m n w 0 t 3 y P F V `  .....+.@.#.#.$.%.&.K *.=.Q J =.J Q =.*.R -.;.>.#.#.>.,...$.'.).J J =.*.=.=.!.=.Q J ~.%.@.{.].I 0 ^.h /.n ",
"m n (.c 3 /._.:.<.[. .+.,.,.+.}.;.+.|.+.;...1...>.1...<.2.-.~...;.+.3.;.;.4.+.;.;.5. .6.7.8.).9...~.-.6.1.;.+.;.0...L j 6 q D n ",
"m a.j c E _.'.|.+.;.'.b.c.c.1...6.<.-.1.>.,.+.3.,.+.|.+.;.3.d.;.e.b.8.f.6.8.).g.h.~.#.;.;.|.d.;.3.d.|.,. .+.~.>.i.=.} D g 7 u j.",
"k.l.7 m.n.o.d.$.d.p.q.!.Q J *.J !.!.Q !.J >.;.e.r.d.6. .r.>.;.2.J s.J !.!.Q *.J J s.t.#.d.<.;...>.3.6.u.;.q.!.J J [ [ } x 7 ^.v.",
"k.l.t w.c T R =.t.q.x.[ [ [ [ [ [ [ [ [ [ =.y.L R t.=.y.q.L y.=.[ [ [ [ [ [ [ [ [ [ *.q.t.=.y.R =._.=.q._.s.[ [ [ [ [ [ v 7 r z.",
"m j.9 a 3 o } [ [ [ [ [ [ [ [ [ [ [ [ [ [ [ [ [ [ [ [ [ [ [ [ [ [ [ [ [ [ [ [ [ [ [ [ [ A.[ A.[ [ A.[ [ A.[ [ [ [ [ [ [ (.7 6 B.",
"m a.j c E } [ [ [ [ [ [ [ [ [ [ [ [ [ [ [ [ [ [ [ [ [ [ [ [ [ [ [ [ [ [ [ [ [ [ [ [ [ [ [ [ [ [ [ [ [ [ [ [ [ [ [ [ [ | j 7 g C.",
"D.E.7 t E } [ [ [ [ [ [ [ [ [ [ [ [ [ [ [ [ [ [ [ [ [ [ [ [ [ [ [ [ [ [ [ [ [ [ [ [ [ [ [ [ [ [ [ [ [ [ [ [ [ [ [ [ } F.^.7 1 G.",
"H.I.6 a (.[ [ [ [ [ [ [ Q J !.Q J *.Q *.J Q [ [ [ [ [ [ [ [ [ [ [ !.Q *.*.Q *.J Q !.Q *.[ [ [ [ [ [ [ [ [ [ [ [ [ [ } 1 ^.d g C.",
"J.K.t H F s.!.s.!.x.[ L >.>.b.c.<.1.c.1.2.L.L [ x.!.s.!.x.[ M.M.s._...7.7...~.>.L.N...1.O.[ O.s.[ !.[ !.x.[ [ [ [ [ } o 3 q 4 P.",
"Q.K.g R.[ _.1.R ~.~.R 6.|.,.d.|.+.5.3.d.;.3.>.R _.S.R S.~.M.T.U.M.8.|.+.+.|.#.3.3.#.V. .S.R 7._.q.7.R ~.S.W.[ [ [ [ [ | f t j X.",
"Q.K.g R.t.#.|...;.+.8.|.....;.@.#.d.>.;.8.c.|.8.#.3...,.5.M.T.U.M.,.>. .d.2.3.....3.>.#.;.c.V.#.-.Y...5.3.~.J Z.R J K y c `.7  +",
"Q.K.g .+u.+.'.|.#.++|.@.R R _.K @+@+=._.q.R >.3.+.u.|.#.M.T.T.U.U.M.=.t.y.L N.R R ~.=._.#.#+r.+.4.-.|.5.#.|.[.-.5.1.5.S.C m.^.$+",
"Q.K.g %+6.7.N.>.~.S.>.R [ [ [ [ [ [ [ [ [ [ &+>.7._.>.U.M.T.T.*+U.M.M.[ [ [ [ [ [ [ [ [ _.=+t.7.$.q.>.S._.#.;.;.;.3.+.1.v a 3 -+",
"Q.K.;+R.s.[ [ [ [ [ [ [ [ [ [ [ [ [ [ [ [ [ [ [ [ U.U.*+*+T.T.*+U.U.*+M.M.[ [ [ [ [ [ [ [ [ [ [ [ [ [ [ s.q.#.@.7.;.).[ D >+j a.",
",+'+h R.[ [ [ [ [ [ [ [ [ [ [ [ [ [ [ [ [ [ [ [ U.*+T.T.U.*+*+*+U.M.*+U.U.M.[ [ [ [ [ [ [ [ [ [ [ [ [ [ [ s.=.J !.L *.} D q 7  +",
")+!+0 w [ [ [ [ [ [ [ [ [ [ [ [ [ [ [ [ [ [ [ U.T.T.T.T.T.U.U.M.M.*+U.U.U.U.M.[ [ [ [ [ [ [ [ [ [ [ [ [ [ [ [ [ [ [ [ } D ~+6 {+",
"m ]+c f R.[ [ [ [ [ [ [ [ [ [ [ [ [ [ [ [ [ [ U.T.T.T.T.T.T.T.T.*+*+U.U.U.U.M.[ [ [ [ [ [ [ [ [ [ [ [ [ [ [ [ [ [ [ [ [ F H a ]+",
"k.]+^.7 E } [ [ [ [ [ [ [ [ [ [ [ [ [ [ [ [ ^+/+/+T.T.T.T.T.T.T.T.*+*+U.U.U.U.M.[ [ [ [ [ [ [ [ [ [ [ [ [ [ [ [ [ [ [ [ [ | 8 !+",
"k.(+_+t E } !.K J Q L *.[ [ [ [ [ [ [ [ [ ^+/+/+/+^+T.T.T.T./+/+/+^+^+U.U.U.U.M.[ [ [ [ J K J =.L *.K Q J K W.[ [ [ [ [ [ F 8 '+",
"m :+j c E [ 1. .>.e.#.~.s.!.*.!.*.*.s.*.!.^+M.M.^+^+^+T.^+^+/+/+/+^+^+^+U.U.U.M.!.*.[ Q 6.;.<.-.#.1.5.c.f.;.~.*.!.J s.*.*.F g K.",
"m P.3 a E ).<+3.;.;.;.#.[+}+2.~.<.[._.>.1.M.*+T.*+M.^+^+^+^+M.M.M.M.^+^+^+U.M.M.~.g._.[.;.,.;.,.3.;.;.;.;.,.d.7.N.c._.<.>..+;+K.",
"k.l.7 d H S.'.<.p.-.6.+.5.d.3.#.;.,.#.|.+.M.M.*+*+*+M.^+^+M.T.T.*+*+M.^+M.M.U.M.d.Y.u.;.#.1.+.@.6.;.<.-.#.}+;.+.'.|+8.+.d.1+8 K.",
"k.2+t w.a v J Q =.L *._.;.5...3.8.-.3...#.;.U.M.M.U.M.^+M.*+T.T.*+*+*+M.U.U.M.+.;.>.|...=.W.=.J J L J =.=.W.t.d.3.2.#+'.R M ;+K.",
"m :+j e 9 w } [ [ [ [ J N.N.R ~.y.q.).q.@+~.M.U.U.M.U.^+M.U.M.M.M.M.U.M.U.U.M.N.~.K 1.q.[ [ [ [ [ [ [ [ [ [ !._.).L [+_.[ | g K.",
"m 3+z t 0 o } [ [ [ [ [ [ [ [ [ [ [ [ U.U.U.U.M.M.U.U.U.U.M.U.U.U.U.M.U.U.M.[ [ [ [ [ [ [ [ [ [ [ [ [ [ [ [ [ [ [ [ [ [ F 1 t K.",
"m 4+g `.^.j P [ [ [ [ [ [ [ [ [ [ U.U.T.T.T.T.T.T.M.M.U.U.U.M.M.M.M.U.M.M.[ [ [ [ [ [ [ [ [ [ [ [ [ [ [ [ [ [ [ [ [ [ [ v _+w.z.",
"m 5+6+t ^.1 P [ [ [ [ [ [ [ [ M.M.T.*+*+*+*+*+*+*+*+M.M.M.U.U.U.U.M.M.M.[ [ [ [ [ [ [ [ [ [ [ [ [ [ [ [ [ [ [ [ [ [ [ } p 7 7 7+",
"m C.g t 9 8+} [ [ [ [ [ [ [ M.U.*+*+*+*+*+*+*+*+*+M.*+T.T.*+*+U.U.U.U.M.M.M.M.[ [ [ [ [ [ [ [ [ [ [ [ [ [ [ [ [ [ [ } E g 7 j a.",
"9+0+w.7 E } [ [ [ [ [ [ [ M.U.U.U.*+*+*+M.M.M.M.M.M./+/+/+/+*+*+U.U.M.U.U.U.U.M.M.[ [ [ [ [ [ [ [ [ [ [ [ [ [ [ [ [ } j w.d 3 P.",
"a+b+c+g o [ [ [ [ [ [ *.M.M.U.U.U.U.M.M.q.t.*.[ M./+/+T.T./+/+*+U.U.M.U.U.U.U.*+*+M.U.R [ [ [ [ [ [ [ [ [ [ [ [ [ [ } p e d A C.",
"Q.K.c (.} J Q *.J J s.q.M.U.U.U.U.M.4.c.#.;._.s.M./+T.T.T.T.*+^+U.U.M.U.U.U.U.*+*+*+T.U.J !.=.J W.=.!.J J [ [ [ [ [ [ d+1 e e+5+",
"Q.K.g R.J >.8.1.f+c.1.#.+.M.U.U.M.,.#.3.+.+.+.7.9.M.*+T.T.*+*+^+^+^+U.M.M.M.*+*+*+*+*+T.U.~.#.2.<. .1.c.8.=.[ s.!.[ [ (.g d g C.",
"Q.K.g %+2.;.|.+.,.;.;.+.7.7.M.M.>.>.g+c.<.1. .;.;.M.^+*+*+*+^+^+U.U.U.U.M.~.M.M.*+*+*+*+T.U.4.;.+.3.+.,.3...t.1.6.R 6.I 0 d 6 ]+",
"Q.K.g .+#.r.>.;.e...;.1.!.!.J !.*.*.!.*.*.s.~.5.-.>.M.^+^+^+^+U.U.U.U.M.*.!.J !.M.*+*+*+*+T.M.u.d.<.;...6.Y.-.+.|.c.|.$.h+t e i+",
"Q.K.g F R L =.R =.=.R J [ [ [ [ [ [ [ [ [ [ *.R =.=.R M.U.U.U.U.U.U.M.[ [ [ [ [ [ M.*+*+*+*+T.M.R J q.=.=.6.#+#.-.j+>.L D c 1 5+",
"a+K.;+R.[ [ [ [ [ [ [ [ [ [ [ [ [ [ [ [ [ [ [ [ [ [ [ [ M.M.M.M.M.M.[ [ [ [ [ [ [ [ M.*+*+*+*+T.M.[ [ [ [ =.<.~.t.<.k+[ D e 8 l+",
"m+n+h | [ [ [ [ [ [ [ [ [ [ [ [ [ [ [ [ [ [ [ [ [ [ [ [ M.o+o+M.M.M.[ [ [ [ [ [ [ [ [ M.*+*+*+*+M.[ [ [ [ [ x.!.[ x.[ } D 7 c+{+",
"p+q+8 E } [ [ [ [ [ [ [ [ [ [ [ [ [ [ [ [ [ [ [ [ [ [ [ [ M.o+M.M.[ [ [ [ [ [ [ [ [ [ [ M.*+*+*+T.M.[ [ [ [ [ [ [ [ [ [ w g 7 ]+",
"k.]+q c o [ [ [ [ [ [ [ [ [ [ [ [ [ [ [ [ [ [ [ [ [ [ [ [ [ M.M.[ [ [ [ [ [ [ [ [ [ [ [ M.*+*+*+*+M.[ [ [ [ [ [ [ [ [ [ } D g r+",
"k.]+^.7 E } [ [ [ [ [ [ [ [ [ [ [ [ [ [ [ [ [ [ [ [ [ [ [ [ [ [ [ [ [ [ [ [ [ [ [ [ [ [ [ M.*+*+*+*+M.[ [ [ [ [ [ [ [ [ [ V 8 s+",
"m -+0 a E } R f._.~.7.K [ [ [ [ [ [ [ [ [ [ L <.~.y.t+_.~.<.q.1.[+!.[ [ [ [ [ [ [ [ [ [ _.M.*+*+*+U.M.~.t.>.L [ [ [ [ [ [ F ;+K.",
"m 5+1 g u+L e.|.r.#.|.$.L L q.=.R R =.q.L L 6.,.++r.|.r.#.3.-.;.5._.J R R Q q.L =.t.Q v+r.M.*+U.M.M.|.#.-.Y.>.R =.t.Q R t.P g K.",
"k.i+>+q x 6.,.8.0.;.8.3.c.c.+.>.u.#.>.5.-.e.|.'. .3.r.3.;.8.V.#.#.;.6.#.#.6.;.c.>.,.6.#.3...M.M.8.j+r.+.3.c.#+..6.|.6.r. .w+8 K.",
"k.]+^.w.8 x+S._.7.}+@+>.3.3.+.3.;.+.3.+.;.3.c.@+~.<.t.7.1._.6._.~.#.|.;.+.3.+.,.,.d.|.+.<.q.6.~._.2.t.}+<.R >.;.4.#.|.;.6..+;+K.",
"m 4+h 7 Z v 1+!.*.!.[ L c.c.1.-.6.[.r.7.e.-.R [ !.*.s.*.*.x.*.!.!.~.8.6.6.u.}+c.c.b.8.f.*.[ *.!.!.*.s.!.*.[ Q @.8.~.8.$.J P g K.",
"m 5+1 c u R.} [ [ [ [ [ Q Q *.Q J J =.*.J Q [ [ [ [ [ [ [ [ [ [ [ !.=.J J =.!.Q Q !.=.J [ [ [ [ [ [ [ [ [ [ [ J =.!.=.J } o c K.",
"m C.g ^._+6+P [ [ [ [ [ [ [ [ [ [ [ [ [ [ [ [ [ [ [ [ [ [ [ [ [ [ [ [ [ [ [ [ [ [ [ [ [ [ [ [ [ [ [ [ [ [ [ [ [ [ [ [ } w ;+c+b+",
"m j.f 7 w.u P [ [ [ [ [ [ [ [ [ [ [ [ [ [ [ [ [ [ [ [ [ [ [ [ [ [ [ [ [ [ [ [ [ [ [ [ [ [ [ [ [ [ [ [ [ [ [ [ [ [ [ [ } D 7 y+z+",
"m a.f t A E } [ [ [ [ [ [ [ [ [ [ [ [ [ [ [ [ [ [ [ [ [ [ [ [ [ [ [ [ [ [ [ [ [ [ [ [ [ [ [ [ [ [ [ [ [ [ [ [ [ [ [ [ [ v t h l+",
"D.{+t 7 6+P [ [ [ [ [ [ [ [ [ [ [ [ [ [ [ [ [ [ [ [ [ [ [ [ [ [ [ [ [ [ [ [ [ [ [ [ [ [ [ [ [ [ [ [ [ [ [ [ [ [ [ [ [ P 6+a 1 5+",
"A+z.r 7 E [ [ [ [ [ [ [ s.s.s.*.s.s.*.s.s.s.[ [ [ [ [ [ [ [ [ [ [ s.*.*.s.*.s.*.*.[ *.*.[ [ [ [ [ [ [ [ [ [ [ *.*.[ s.(.c ^.c C.",
"9+z+w.7 E } [ [ [ [ A.J >.>.~.@.7.1.c.~.6.@.=.A.[ [ [ [ [ [ [ [ [ _...1.1...~.>.9._...S.[ [ [ [ [ [ [ [ [ [ J 6...t...K 9 d 6 {+",
": C.;+t 9 w } *.S.~.R 6.,.,.#.,. . .|.d.;.3.>.R _.S.R ).N.R 1.t._.8.|. .+.|.#.;.;.#.|.#.[+&+1.y.q.7.R N.1.=.6.;.|.'.;.[.(.t g C.",
"m l p e 7 1 1+~.;.d...;.-.r.,.c.#.+.c.;.8...3...#.,.c.;.#.c.3.-.8.4.c. .d.e.3.8...3.@.d.;.e.|.8...Y.g.#.;.>.3.'.@.Y.2.S p c x B+",
"m n o c w.9 K d.#. .|.c.R q.~.R @+@+R C+q.R e.3.+.#.|.d. .|.#.3.;.1.Z._.@+D+~.q.R ~.Z.~.'.V.'.;.3.8.|.+.'.Y.c.K < ~.S p c c o n ",
"m n F e+a a E+F+G+G+H+J [ s.s.[ [ [ [ s.s.[ J H+I+N.>.S.1.>._.6.<.W.[ s.s.[ s.[ [ s.[ S G+J+K 6.2.y.9.1.C+$.K+H H H 9 c _+e+F n ",
"m n [ F C 0 h L+u f b n.(.M+w P V R.P w M+(.6+b s D y v o y v o v (.M+(.R.P | F F D E E u Z 6+y y v y o D N+c 6 `.m.O+0 1 F } n ",
"m n [ [ P F E 8 c c a c c t b p j P+p 2 A h g e t t t t t t e A h g a a j E 3 e+6+A ;+8 c t t t t t t t c g a t t g E R.P [ [ n ",
"Q+R+S+T+T+T+U+V+W+W+W+X+Y+Z+`+ @.@+@ @@@#@$@W+$@%@&@Z+Z+Z+Z++@*@W+=@+@Z+@@-@+@;@ @>@,@W+W+'@@@)@Z+Z+Z+!@-@X+W+W+W+~@{@T+T+T+T+]@"};
