/* XPM */
static char * cacnea_xpm[] = {
"64 64 316 2",
"  	c #E4D9AF",
". 	c #DFD29D",
"+ 	c #DED19C",
"@ 	c #DED09B",
"# 	c #DECD99",
"$ 	c #DDCD99",
"% 	c #DCCA96",
"& 	c #D9C290",
"* 	c #D8BF8D",
"= 	c #D8BE8D",
"- 	c #D9C391",
"; 	c #DCCB97",
"> 	c #DBC995",
", 	c #D9C28F",
"' 	c #D9C18F",
") 	c #D9C08E",
"! 	c #DBC996",
"~ 	c #DBC894",
"{ 	c #D8BF8E",
"] 	c #DAC693",
"^ 	c #DDCD98",
"/ 	c #D9C08F",
"( 	c #D9C491",
"_ 	c #DCCC98",
": 	c #DECE99",
"< 	c #DED19B",
"[ 	c #DED29D",
"} 	c #DFD29E",
"| 	c #D8C881",
"1 	c #D8C880",
"2 	c #D8C77F",
"3 	c #D7C67E",
"4 	c #D5C179",
"5 	c #D3B971",
"6 	c #D3B770",
"7 	c #D3B870",
"8 	c #D2B770",
"9 	c #D1B46C",
"0 	c #D1B26A",
"a 	c #D1B169",
"b 	c #D2B76F",
"c 	c #D3BA72",
"d 	c #D2B56E",
"e 	c #D4BB74",
"f 	c #D4BC74",
"g 	c #D2B870",
"h 	c #D1B36B",
"i 	c #D1B16A",
"j 	c #D1B56D",
"k 	c #D2B66E",
"l 	c #D4BC75",
"m 	c #D3B871",
"n 	c #D4BD75",
"o 	c #D2B56D",
"p 	c #D4BA72",
"q 	c #D6C37B",
"r 	c #D7C77F",
"s 	c #D9C983",
"t 	c #D9C982",
"u 	c #D7C57D",
"v 	c #D5BE76",
"w 	c #D0B169",
"x 	c #D0B068",
"y 	c #D4BD76",
"z 	c #D5BD75",
"A 	c #D1B46D",
"B 	c #D7C47C",
"C 	c #D6C17A",
"D 	c #D7C47D",
"E 	c #D5BD76",
"F 	c #D3BB73",
"G 	c #D5C078",
"H 	c #D6C27A",
"I 	c #D5BF77",
"J 	c #D5C079",
"K 	c #D9CA85",
"L 	c #D2B871",
"M 	c #D7C27C",
"N 	c #DBCB86",
"O 	c #D9CA83",
"P 	c #DBCC86",
"Q 	c #DCCD87",
"R 	c #DACB84",
"S 	c #D8C67F",
"T 	c #D8C37F",
"U 	c #D8C57F",
"V 	c #DACA83",
"W 	c #DACB85",
"X 	c #DACA84",
"Y 	c #DBCD87",
"Z 	c #DAC983",
"` 	c #D8C47E",
" .	c #D8C37E",
"..	c #D8C67E",
"+.	c #D8C57E",
"@.	c #D7C17C",
"#.	c #D9C882",
"$.	c #D9C881",
"%.	c #D8C781",
"&.	c #DDCF8B",
"*.	c #E1D592",
"=.	c #DED18C",
"-.	c #E0D490",
";.	c #DFD28E",
">.	c #DED08D",
",.	c #E0D290",
"'.	c #D9CA82",
").	c #DACB83",
"!.	c #DED18D",
"~.	c #E0D491",
"{.	c #DFD38F",
"].	c #DED28D",
"^.	c #E0D591",
"/.	c #DFD28F",
"(.	c #DCCD88",
"_.	c #DCCE89",
":.	c #E0D390",
"<.	c #DFD18D",
"[.	c #DDD08C",
"}.	c #DFD18E",
"|.	c #D9C781",
"1.	c #DDCF8A",
"2.	c #DFD48F",
"3.	c #DCCE88",
"4.	c #DED28E",
"5.	c #E1D491",
"6.	c #DDD18C",
"7.	c #DCCF8A",
"8.	c #DDD08B",
"9.	c #DCCF89",
"0.	c #DFD490",
"a.	c #DFD390",
"b.	c #E0D592",
"c.	c #E1D591",
"d.	c #E0D492",
"e.	c #D6C079",
"f.	c #D9C984",
"g.	c #DED19D",
"h.	c #D6C27C",
"i.	c #DACC86",
"j.	c #DBCE88",
"k.	c #DED08B",
"l.	c #DBCD86",
"m.	c #D6C179",
"n.	c #D4BA73",
"o.	c #D7C480",
"p.	c #DED09C",
"q.	c #D4BA74",
"r.	c #DED08C",
"s.	c #DCCF8B",
"t.	c #D8C981",
"u.	c #D9C981",
"v.	c #DACC85",
"w.	c #DFD491",
"x.	c #D4BB78",
"y.	c #D4BC76",
"z.	c #D0B36B",
"A.	c #D9CA84",
"B.	c #D2B673",
"C.	c #DFD19D",
"D.	c #D7C27D",
"E.	c #D4BE76",
"F.	c #D8C87F",
"G.	c #D4BA76",
"H.	c #D6C47C",
"I.	c #D6C27B",
"J.	c #D7C37F",
"K.	c #D3B872",
"L.	c #D7C682",
"M.	c #D9C292",
"N.	c #D2B36D",
"O.	c #D6C27E",
"P.	c #D1B16C",
"Q.	c #D3B76F",
"R.	c #D6C078",
"S.	c #D8C980",
"T.	c #DBCC85",
"U.	c #DFD38E",
"V.	c #DDD08A",
"W.	c #D7C580",
"X.	c #D8BF8F",
"Y.	c #D1B26C",
"Z.	c #D4BB73",
"`.	c #DFD28D",
" +	c #E0D38F",
".+	c #D7C581",
"++	c #E1D693",
"@+	c #DDCF89",
"#+	c #E1D692",
"$+	c #E1D593",
"%+	c #D6BF7C",
"&+	c #D9CB84",
"*+	c #101010",
"=+	c #D1B26B",
"-+	c #D5BF7C",
";+	c #B89840",
">+	c #F8E890",
",+	c #F8D048",
"'+	c #D7C681",
")+	c #D9C291",
"!+	c #D1B36C",
"~+	c #D6C07C",
"{+	c #D2B46D",
"]+	c #D5BE7B",
"^+	c #305028",
"/+	c #D5BF7B",
"(+	c #D3B974",
"_+	c #E0F898",
":+	c #78C868",
"<+	c #489838",
"[+	c #D4BB77",
"}+	c #D5BC77",
"|+	c #D9CB83",
"1+	c #D8C982",
"2+	c #D1B471",
"3+	c #D7C37E",
"4+	c #D3B972",
"5+	c #407028",
"6+	c #88A850",
"7+	c #DED18B",
"8+	c #D1B26F",
"9+	c #DFD09C",
"0+	c #D6C17B",
"a+	c #C8E870",
"b+	c #D8C780",
"c+	c #D5BC76",
"d+	c #D0B26A",
"e+	c #D8C47D",
"f+	c #688840",
"g+	c #D7C57E",
"h+	c #DBCE87",
"i+	c #DFD09D",
"j+	c #808080",
"k+	c #F8E8F8",
"l+	c #A8C860",
"m+	c #D6BF79",
"n+	c #D7C47E",
"o+	c #D7C67F",
"p+	c #D5BE7A",
"q+	c #D5BE78",
"r+	c #D5BF78",
"s+	c #D8C681",
"t+	c #D2B670",
"u+	c #D8C08F",
"v+	c #D5BE77",
"w+	c #D2B66F",
"x+	c #D6C57D",
"y+	c #D8C782",
"z+	c #D9C681",
"A+	c #D6C17E",
"B+	c #DBCB85",
"C+	c #D6C37F",
"D+	c #DAC694",
"E+	c #D2B56F",
"F+	c #DDCE9A",
"G+	c #D7C37B",
"H+	c #D3BA74",
"I+	c #D3B774",
"J+	c #D6BF7A",
"K+	c #DBCD88",
"L+	c #D9C880",
"M+	c #DCCE87",
"N+	c #D1B270",
"O+	c #D7C47F",
"P+	c #D5BD78",
"Q+	c #E0D593",
"R+	c #D4B974",
"S+	c #D0B069",
"T+	c #D5BF79",
"U+	c #D3BA73",
"V+	c #D9CA81",
"W+	c #D1B66E",
"X+	c #D5BE79",
"Y+	c #D1B370",
"Z+	c #D6C17C",
"`+	c #D3B875",
" @	c #D7C37D",
".@	c #D5BB75",
"+@	c #DBC593",
"@@	c #D2B46E",
"#@	c #DBC895",
"$@	c #DECF9B",
"%@	c #D5BD77",
"&@	c #D2B46C",
"*@	c #D7C67D",
"=@	c #D8C680",
"-@	c #DED28F",
";@	c #DBCC87",
">@	c #D8C47F",
",@	c #DCCB87",
"'@	c #DCCB88",
")@	c #D3BC74",
"!@	c #D4B972",
"~@	c #D6C37C",
"{@	c #D7C37C",
"]@	c #D5BC75",
"^@	c #DFD3A0",
"/@	c #D9CA86",
"(@	c #D6C07D",
"_@	c #D6C17D",
":@	c #D2B573",
"<@	c #D4B975",
"[@	c #D2B572",
"}@	c #D3B874",
"|@	c #D4BC78",
"1@	c #D5C07D",
"2@	c #D2B773",
"3@	c #D4BD79",
"4@	c #D2B370",
"5@	c #D3B975",
"6@	c #D3B773",
"7@	c #D5BD79",
"8@	c #D1B26E",
"9@	c #D1B36F",
"0@	c #D8C883",
"a@	c #DACA87",
"  . + + + + @ # $ $ $ % & * = = = = - ; $ $ > , ' ' ) , ) * & ! $ ~ ) = = = = { ] ^ $ ^ ] ) , / ) , { * ( _ $ $ $ : < [ + + + } ",
"< | 1 1 2 3 4 5 6 7 7 8 9 0 a a a a 9 b 5 c b d e c 7 f g 0 9 g c b h a a a i 0 j g 5 5 k b l 5 m n o 0 o 5 7 5 5 p q r 2 1 1 s ",
". t 1 u v f g w x x d e y z z n n n 5 A 5 n n v B q C D C n n n n n n z n n E f b j F n n G B H H u I n n p j b 7 9 5 n J 2 1 K ",
". t u y j b 5 L g g M N O P P O Q R S T U 2 r r 1 2 2 2 2 r 3 1 P P V P W X Y Z `  .S r r 2 2 2 2 1 r r 2 .. .` +.@.e o b G 3 K ",
". #.G k k v S $.3 %.&.*.=.-.-.=.*.;.>.,.&.R O W '.O R '.R ).t Y -.-.!.~.{.].^.!.!./.(.O O R t X R t R O O _.:.<.[.}.|.5 0 b q K ",
". %.n o I 2 1.2.3.4.~.{.*.-.:.*.{.~.5.{.^.6.7.{.1.8.4.9.].!._.{.0.a.b.a.~.c.{.^.~.{.-.1.8.{._.!.].3.{.8.1.b.{.~.d.8.t f 0 9 e.f.",
"g.h.g b u 8.~.^.~.~.8.i.!.3.(.=.P 7.8.P =.~.~.^.~.~.~.~.^.~.~.a.3.j.[.Q 1.k.l.8.7.Y {.^.~.^.~.^.^.~.^.^.~.;.l.7.[.t 2 m.5 h n.o.",
"p.q.w A e.r.]._.~.s.t t.t u.$.t.| t.u.t.'.=.{.7.{.!.1.{.8.8.{.Q | | u.t.t.t $.u.t.| v.;.4._.a.[.8.w._.;./.O t.u.t.1 1 2 G h 0 x.",
"@ y.h z.5 S ).'.v.O 1 1 1 1 1 1 1 1 1 1 1 V R '.R A.'.R O V R t 1 1 1 1 1 1 1 1 1 1 u.R R '.R O O v.t R R | 1 1 1 1 1 1 C h x B.",
"C.D.5 o E.u 1 1 F.1 1 1 1 1 1 1 1 1 1 1 1 F.1 1 F.1 1 1 1 1 1 1 1 1 1 1 1 1 1 1 1 1 1 1 F.1 F.1 1 F.1 1 F.1 1 1 1 1 1 r G h 0 G.",
"C.M g b H.1 1 1 1 1 1 1 1 1 1 1 1 1 1 1 1 1 1 1 1 1 1 1 1 1 1 1 1 1 1 1 1 1 1 1 1 1 1 1 1 1 1 1 1 1 1 1 1 1 1 1 1 1 2 I.c h 5 J.",
"_ K.w k H.1 1 1 1 1 1 1 1 1 1 1 1 1 1 1 1 1 1 1 1 1 1 1 1 1 1 1 1 1 1 1 1 1 1 1 1 1 1 1 1 1 1 1 1 1 1 1 1 1 1 1 1 1 2 f 0 h l L.",
"M.N.a 7 u 1 1 1 1 1 1 t.).t t V u.O O u.O '.1 1 1 1 1 1 1 1 1 1 1 t O t '.O t O '.t O u.1 1 1 1 1 1 1 1 1 1 1 1 1 1 2 n h 0 b O.",
"{ P.Q.R.2 u.u.| u.t.S.T.U.9.7.;.3.8.=.3.].V.'.1 u.t.t.u.S.u.u.| t _.]._.8.=.(.!.8.3.4.3.u.1 u.t.t.u.| u.u.1 1 1 1 1 2 H c 9 p W.",
"X.Y.Z.2 u._.3.W 1.P P `.*.-.~.*.0.~.^.-.*.^.1.W _.Y P 9.P Y _.v.3.a.b.-.~.b.:.b.^.0.*. +(.T.1.P P 1.W 3._.t.1 1 1 1 1 q p 9 Z..+",
"X.Y.Z.1 3.*.~.!.++;.{.*.@+{.{.1.~.!.[.~.8.;.~.4.^.-.;.#+{.a.b.4.~.{.&.:.].8.~.r.4.w.1.a.~.4.$+{.U.++;.~.^.(.'.R v.t W M k w 0 %+",
"X.Y.Z.X c.;.{.*.=.^.~._.O v.W O i.&+O P O R !.*.;.{.^.4.*+*+4.b.*+*+O v.R V T.X R i.'.P {.b.].-.~.].*.{.;.b.8.U.0.9.-.(.E.=+h -+",
"X.Y.e t 8.P Y 8.R _._.t 1 F.1 1 F.1 1 1 1 F.W V.P Y ;+*+;+;+*+*+;+;+*+*+1 1 1 1 1 1 1 | Y 1.v._._.W 1.Y P {.~.~.~.*.{.Y C o n.W.",
"X.Y.Z.2 1 1 1 1 1 1 1 1 1 1 1 1 1 1 1 1 1 1 1 1 1 ;+>+;+;+;+>+,+;+;+;+>+*+1 1 1 1 1 1 1 1 1 1 1 1 1 1 1 1 v.{.&._.:.l.1 m.d f '+",
")+N.f 2 1 1 1 1 1 1 1 1 1 1 1 1 1 1 1 1 1 1 1 1 1 ;+>+>+;+>+,+>+,+;+>+,+*+1 1 1 1 1 1 1 1 1 1 1 1 1 1 1 1 | '.t t.'.u.2 J !+h ~+",
"_ K.Z.u 1 1 1 1 1 1 1 1 1 1 1 1 1 1 1 1 1 1 1 1 1 1 ;+,+,+,+>+,+,+,+,+;+*+1 1 1 1 1 1 1 1 1 1 1 1 1 1 1 1 1 1 1 1 1 1 2 m.{+i ]+",
"p.q.k E.3 1 1 1 1 1 1 1 1 1 1 1 1 1 *+^+^+1 1 1 1 ^+^+,+,+>+,+,+,+,+,+*+*+1 1 1 1 1 *+^+1 1 1 1 1 1 1 1 1 1 1 1 1 1 1 1 u l o /+",
"@ (+w k H.1 1 1 1 1 1 1 1 1 1 1 1 1 *+_+:+^+^+1 ^+<+<+^+^+,+,+,+,+^+^+<+^+*+*+1 *+^+_+^+1 1 1 1 1 1 1 1 1 1 1 1 1 1 1 1 1 H.g [+",
"@ }+h k H.1 O R u.X ).t.1 1 1 1 1 1 1 *+:+:+<+^+^+<+:+:+:+^+^+^+^+<+<+<+<+^+^+^+:+:+<+*+O R t |+X t R V s W 1+1 1 1 1 1 1 u b 2+",
"C.3+4+b B t k.~.3./.;.R | u.u.t.t t.u.*+<+<+<+5+6+5+<+:+:+:+:+:+<+<+<+5+6+6+<+<+:+<+^+O r.:.7.;.{._.-.7+V.~.Y u.t.t t.u.u.u b 8+",
"9+0+b b u 8.~.^.~.~.~.;.P 1.1.l.6.3.(.=.*+<+5+a+a+a+5+:+:+:+:+:+<+5+5+a+a+a+5+<+<+<+*+8.~.~.~.^.^.~.~.~.~.^.a._.Y =.P @+8.S b 8+",
"@ q.w A C r.!.3.~.1.8.b.;.b.^./.++0.a.#+*+^+a+a+a+a+a+<+:+:+:+<+5+a+a+a+a+a+a+5+*+*+*+^+^+_.a.8.&.-._.].U.j.~.-.{.++;.~.a.b+b 8+",
"@ c+0 d+7 e+O 1+V t t 3.$+].4.$+k.:.^+^+^+f+a+a+a+a+a+5+<+:+<+5+a+a+a+a+a+a+a+a+a+^+<+:+:+^+O t t V u.O O 1+i.:.^.V.#+;.A.g+b 8+",
"C.3+5 j E.u 1 1 1 1 1 O h+W W Y X P *+<+^+a+a+f+*+^+6+_+5+<+5+a+a+f+*+*+f+a+a+a+a+^+<+<+*+1 1 1 1 1 1 1 1 1 u.P Y V Q T.1 H.b 8+",
"i+M g 9 f H.1 1 1 1 1 1 1 1 1 1 1 1 1 *+^+a+f+*+j+k+^+_+_+_+_+_+f+*+k+j+*+f+a+a+a+l+*+*+1 1 1 1 1 1 1 1 1 1 1 1 1 1 1 1 u n 9 8+",
"9+m+o w h G 2 1 1 1 1 1 1 1 1 1 1 1 1 1 f+a+f+*+k+*+^+_+_+_+_+_+f+j+*+k+*+f+a+a+a+a+l+*+1 1 1 1 1 1 1 1 1 1 1 1 1 1 1 1 C 9 w B.",
"C.n+p 0 9 m.2 1 1 1 1 1 1 1 1 1 1 1 ^+5+a+a+f+*+j+k+6+a+_+_+_+a+f+*+k+j+*+f+a+a+a+a+l+^+^+^+1 1 1 1 1 1 1 1 1 1 1 1 1 o+I h h p+",
"p.q+j A E.u 1 1 1 1 1 1 1 1 1 f+6+6+l+5+a+a+a+f+*+^+a+a+a+a+a+a+a+f+*+*+f+a+a+a+a+l+f+6+6+l+f+f+1 1 1 1 1 1 1 1 1 1 2 r+k h f s+",
"! t+w k H.1 1 5+^+^+1 1 f+f+6+l+l+l+l+5+a+^+a+a+a+a+a+a+a+a+a+a+a+a+a+a+a+^+f+a+a+f+6+6+l+l+a+a+l+f+f+1 1 1 1 ^+*+1 o+f w d+c W.",
"u+Y.h c u 1 1 :+<+<+^+6+a+a+a+a+l+f+f+5+a+*+f+6+*+6+a+6+*+*+*+6+a+6+*+6+l+*+f+a+l+f+f+f+l+l+a+a+a+a+a+l+f+f+^+_+*+1 2 v+j d+w+O.",
"X.Y.4+H.1 t t 5+^+6+a+a+a+a+f+f+f+l+l+5+a+*+f+*+*+*+a+*+*+*+*+*+a+*+*+*+l+*+f+l+l+f+6+6+f+f+a+a+a+a+a+a+a+^+:+<+*+1 1 x+n j y y+",
"X.Y.Z.2 O 4.=.^+a+_+_+a+f+f+a+l+l+6+6+6+f+l+a+*+*+*+a+*+*+*+*+*+a+*+*+*+a+l+l+l+l+6+f+6+6+6+f+l+a+a+a+a+a+^+<+<+^+1 1 J b d+8 O.",
"X.Y.f t !.b.~.6+_+:+:+^+l+a+l+l+6+6+6+*+^+l+l+f+*+f+a+*+*+*+*+*+a+f+*+f+l+6+l+<+l+6+*+*+6+6+6+6+f+a+a+a+a+a+^+^+l+^+1.z+7 w 0 /+",
"X.Y.Z.W b.8.f+l+_+:+_+<+l+l+6+6+6+^+*+t *+<+l+l+5+l+a+6+*+*+*+6+a+a+5+l+l+<+<+5+5+6+*+V *+^+6+6+6+f+^+^+a+a+_+_+a+l+*+1.G 9 j A+",
"X.Y.Z.1 T.V f+l+a+^+<+^+6+6+6+6+*+1 1 1 *+<+<+5+l+l+l+l+l+f+l+l+l+l+l+5+6+<+5+5+6+*+^+| O B+^+6+6+^+:+<+^+a+_+_+a+l+*+V m.k y y+",
"X.Y.Z.2 1 1 1 f+f+l+6+6+6+6+6+*+1 1 1 1 1 *+5+5+6+l+l+l+<+<+<+f+l+l+l+5+l+5+5+5+^+*+1 1 1 1 1 ^+^+_+<+<+^+l+a+a+l+l+*+1 m.j 7 C+",
"D+E+f o+1 1 1 ^+6+6+6+6+6+6+*+*+1 1 1 1 1 *+^+f+6+6+5+5+5+5+5+5+5+5+6+6+5+6+5+^+5+^+1 1 1 1 1 1 *+^+^+^+f+f+l+l+l+^+1 2 m.h 0 -+",
"F+(+c G+1 1 1 1 ^+6+6+f+*+*+^+*+1 1 1 1 1 ^+5+*+6+6+f+5+5+5+5+5+5+f+f+6+6+5+^+5+5+^+1 1 1 1 1 1 1 *+f+6+6+6+f+f+f+*+1 2 H b 0 /+",
"@ H+h p u 1 1 1 1 *+*+*+1 ^+<+*+1 1 1 1 ^+<+<+5+*+^+6+f+f+5+5+f+f+6+6+6+^+5+5+<+5+5+*+1 1 1 1 1 1 *+*+^+f+6+6+^+*+1 1 1 r m.b p+",
"@ (+w k H.1 1 1 1 1 1 1 1 1 1 1 1 1 1 1 ^+<+<+5+5+5+*+^+6+f+f+6+6+6+*+^+5+5+<+<+5+5+*+1 1 1 1 1 1 *+^+*+*+*+*+1 1 1 1 1 1 D g I+",
"9+J+k b H.1 P 9.).K+K+t 1 F.1 1 1 1 1 1 ^+<+5+^+*+*+3.R *+*+*+*+*+*+1 1 *+*+^+<+<+5+*+L+P _.R M+3.*+*+*+v.7.O b+1 F.1 1 1 u b N+",
"C.O+c b D R 4.#+8.~.~.Q t R R t R O O R ^+*+*+*+].{.~.!.~.0.!.^.4.R t R V '.*+*+5+<+*+B+/.b.=.-.-.6.*.U.!.++V.V t v.'.).R g+b 8+",
"p.P+A w++.;.~.;.++{.a.^._.;.U.9.-.r.8.-.7.!.^.;.b.~.{.Q+{.a.*./.-.;.1.{.=.8.:.8.*+*+^+{.^.;.*.{.{.++;.^.b.].b.6.7.^.@+!.{.b+b 8+",
"@ R+S+h l N _.i.8.Y Y ;.b.~.~.b.-.^.^.-.b.^.8.i.7.3.l.V.Y (.1.P 9.-.b.~.~.b.~.^.~.-.*.:.9.P 8.Q Y 8.i.9.1.T.=.^.^.-.*.~.8.S b 8+",
"p.T+o h U+D $.t.V+t.| P {.V.V.{._.!.]._.{.6.O 1 u.u.t.u.u.u.u.t.t 1.;.1.=.4.9.].=.9.{._.u.t.u.u.t.u.t.u.u.| ).!.;.K+{.k.'.g+b 8+",
"C.n+c W+v+u 1 1 1 1 1 t.R '.'.R t O O t R O 1 1 1 1 1 1 1 1 1 1 1 t X t O V t O O t R t 1 1 1 1 1 1 1 1 1 1 1 O V u.R '.2 H k 8+",
"C.X+o =+g H 2 1 1 1 1 1 1 1 1 1 1 1 1 1 1 1 1 1 1 1 1 1 1 1 1 1 1 1 1 1 1 1 1 1 1 1 1 1 1 1 1 1 1 1 1 1 1 1 1 1 1 1 1 2 q m 0 Y+",
"i+Z+6 w d+r+2 1 1 1 1 1 1 1 1 1 1 1 1 1 1 1 1 1 1 1 1 1 1 1 1 1 1 1 1 1 1 1 1 1 1 1 1 1 1 1 1 1 1 1 1 1 1 1 1 1 1 1 1 2 4 h x `+",
"C. @5 h 7 I.2 1 1 1 1 1 1 1 1 1 1 1 1 1 1 1 1 1 1 1 1 1 1 1 1 1 1 1 1 1 1 1 1 1 1 1 1 1 1 1 1 1 1 1 1 1 1 1 1 1 1 1 1 1 m.9 b O.",
"F+.@h o m.o+1 1 1 1 1 1 1 1 1 1 1 1 1 1 1 1 1 1 1 1 1 1 1 1 1 1 1 1 1 1 1 1 1 1 1 1 1 1 1 1 1 1 1 1 1 1 1 1 1 1 1 1 1 3 v+o n y+",
"+@@@x k H.1 1 1 1 1 1 1 | | | u.1 | u.| | | 1 1 1 1 1 1 1 1 1 1 1 | u.1 | | | u.| 1 u.1 1 1 1 1 1 1 1 1 1 1 1 u.| 1 1 4 b h b 3+",
"#@E+x k H.1 1 1 1 1 F.V r.Y Q k.T.9.1.B+8.3.u.1 1 1 1 1 1 1 1 1 1 Y 8.l.3.1.P 1._.P 8.P 1 1 1 1 1 1 1 1 1 1 u._.8.R 8.#.5 d+a ]+",
"$@%@&@o I *@F.'.(.R R 8.#+{.{.*.;.-.~.;.*.0.3.V l.v.R Y R R Y R P /.*.{.-.^.U.~.-.;.*.;.T.O Y R R Q O T.l.'.9.~.c.].~._.G 9 k A+",
". =@F h k H u._.*.6.!.^.!.~.~.!.b.{.;.b.!.0.0.8.-.;.6.-.=.!.-.8.{.~.;.~.{.4.b.;.{.^.!.-.{.8.~.=.=.^.V.{.a.1.^.{.;.++k.s I k v+y+",
". #.v 0 0 r+(.~.{.~.d.8.X j.(.R _.P P _.W Y -@b.-.~.b.:.~.~.0.b.-._.W 3.;@W _.v.l.3.R _.-.d.a.~.^.a.b.-.:.b.4.i.W 7.t G Q.k H K ",
". t H 5 h 5 >@,@X ,@,@t | t.| 1 t.| | t.| t.X '@B+1.!.3.=.8.j.!.9.1+| t.| | t.| t.t.1 u.N '@N r.=.Y ].1.3.>.>@v+v+I n b 9 )@H.K ",
". t 2 I.4+7 7 !@I e e m.I.I.u r D g+3 ~@H H v+n.v+B D {@D D ~@D {@I.H q g+3 u 3 g+I.H m.]@n.e.D D {@u D ~@C 8 0 =+h b 6 Z.B 2 K ",
". 1+1 2 H.H )@o b j o 7 b w+f m.e I G 4+7 5 b 9 j k k k k k k g m 7 w+8 v+G f G v+6 L 7 k 9 o k k k k k b b 9 0 h k v I.u 1 1 K ",
"^@/@f.K K K s+A+(@_@_@p+:@8+B.<@[@}@}@B.|@1@_@/+2@8+8+8+8+8+[@3@~+[+4@Y+}@5@B.}@I+6@p+(@~+7@[@8@8+8+8+9@}@%+_@_@_@O.0@K K K f.a@"};
