/* XPM */
static char * exit_open_xpm[] = {
"64 64 195 2",
"  	c #E2D6A9",
". 	c #DCCE93",
"+ 	c #DCCE92",
"@ 	c #DCCD91",
"# 	c #DACA8F",
"$ 	c #D9C58A",
"% 	c #D8C880",
"& 	c #404868",
"* 	c #E8E0A0",
"= 	c #606078",
"- 	c #C89850",
"; 	c #D0B068",
"> 	c #808088",
", 	c #D8C489",
"' 	c #DFD39F",
") 	c #D8C982",
"! 	c #D8C77F",
"~ 	c #D7C47C",
"{ 	c #D6C27A",
"] 	c #D4BC74",
"^ 	c #D1B36B",
"/ 	c #D2B66E",
"( 	c #D2B46C",
"_ 	c #D4BC75",
": 	c #D6C27B",
"< 	c #D3B870",
"[ 	c #D1B56D",
"} 	c #D1B26B",
"| 	c #D5BF78",
"1 	c #D3B871",
"2 	c #D2B66F",
"3 	c #D3B971",
"4 	c #D1B46C",
"5 	c #D3BA72",
"6 	c #D5C078",
"7 	c #DACB85",
"8 	c #DDCC89",
"9 	c #D9C680",
"0 	c #D8C881",
"a 	c #D4BE76",
"b 	c #DBCB85",
"c 	c #DDCF89",
"d 	c #DFD390",
"e 	c #E0D390",
"f 	c #DBCC87",
"g 	c #D5BE77",
"h 	c #D1B26A",
"i 	c #D5BF77",
"j 	c #D7C67F",
"k 	c #D3BB73",
"l 	c #D2B76F",
"m 	c #D6C37B",
"n 	c #DACB84",
"o 	c #DFD28E",
"p 	c #E1D693",
"q 	c #E0D492",
"r 	c #DBCD87",
"s 	c #D9C981",
"t 	c #D6C179",
"u 	c #D4BB74",
"v 	c #DED09E",
"w 	c #D4BD76",
"x 	c #D7C47D",
"y 	c #DFD38F",
"z 	c #E0D491",
"A 	c #DED18D",
"B 	c #DACC85",
"C 	c #D8C981",
"D 	c #D8C67E",
"E 	c #D2B56D",
"F 	c #D1B36C",
"G 	c #DED09D",
"H 	c #D3B973",
"I 	c #D0B169",
"J 	c #DACA85",
"K 	c #DCCE88",
"L 	c #D6C37C",
"M 	c #DED19E",
"N 	c #D5BF79",
"O 	c #D6C47C",
"P 	c #DFD29F",
"Q 	c #D6C47E",
"R 	c #D7C77F",
"S 	c #D4BB73",
"T 	c #D3B76F",
"U 	c #DBC897",
"V 	c #D1B56E",
"W 	c #D9C292",
"X 	c #D0B26B",
"Y 	c #D7C57D",
"Z 	c #D9C091",
"` 	c #DACA84",
" .	c #DACA83",
"..	c #D9C982",
"+.	c #D5BE76",
"@.	c #D4BA72",
"#.	c #DFD28F",
"$.	c #DFD28D",
"%.	c #DAC983",
"&.	c #DDD18C",
"*.	c #DDD08B",
"=.	c #DBCB86",
"-.	c #D5BD76",
";.	c #D3B972",
">.	c #E0D490",
",.	c #DDCF8A",
"'.	c #E1D592",
").	c #E0D591",
"!.	c #DED18C",
"~.	c #D2B46D",
"{.	c #D9CA83",
"].	c #DED28D",
"^.	c #DDCE89",
"/.	c #D2B56E",
"(.	c #DECF9C",
"_.	c #D4BA73",
":.	c #D2B973",
"<.	c #D3BA73",
"[.	c #D7C67E",
"}.	c #D5C079",
"|.	c #DBCD86",
"1.	c #D6C37D",
"2.	c #DBCC86",
"3.	c #D9CA82",
"4.	c #D4BE77",
"5.	c #DCCF8A",
"6.	c #DDCF8B",
"7.	c #DCCB86",
"8.	c #DCCE89",
"9.	c #D9C983",
"0.	c #D4BF78",
"a.	c #D9CA84",
"b.	c #DACB83",
"c.	c #DFD19E",
"d.	c #D8C87F",
"e.	c #D5C17A",
"f.	c #D0B069",
"g.	c #D2B870",
"h.	c #D7C57E",
"i.	c #D4BD75",
"j.	c #D3BB74",
"k.	c #D5C179",
"l.	c #DAC696",
"m.	c #D1B46D",
"n.	c #D0B16A",
"o.	c #DBCC85",
"p.	c #D0B26A",
"q.	c #E0D592",
"r.	c #DCCC88",
"s.	c #DED28F",
"t.	c #DAC292",
"u.	c #DCC998",
"v.	c #D2BA73",
"w.	c #D3BA74",
"x.	c #D1B16A",
"y.	c #DFD19F",
"z.	c #D2B770",
"A.	c #D8C980",
"B.	c #DBCE88",
"C.	c #DCCE87",
"D.	c #D3BB75",
"E.	c #D7C37C",
"F.	c #283058",
"G.	c #D9C782",
"H.	c #E1D692",
"I.	c #DED28E",
"J.	c #E1D491",
"K.	c #D9C881",
"L.	c #DED08B",
"M.	c #D6C47D",
"N.	c #D1B66E",
"O.	c #D4BD77",
"P.	c #D2B871",
"Q.	c #DECC9B",
"R.	c #D1B169",
"S.	c #DAC594",
"T.	c #D0B36C",
"U.	c #DCCB99",
"V.	c #DDD08C",
"W.	c #D7C780",
"X.	c #E1D593",
"Y.	c #DED08C",
"Z.	c #D6C078",
"`.	c #DCCD88",
" +	c #D9C882",
".+	c #D6BF7A",
"++	c #D9C581",
"@+	c #A8A8A8",
"#+	c #E1D5A6",
"$+	c #DACB8A",
"%+	c #D9C989",
"&+	c #D8C686",
"*+	c #D8C685",
"=+	c #D9C988",
"-+	c #DACB88",
"  . + + + @ # $ % % & % * * = % - % % - - ; - - - - - - - > - - - - > - - - - - - - ; - - % % - % = * * % & % % , $ # + + + + + ",
"' ) % ! ~ { ] ^ % % & % * * = % % - - ; ; ; - % % % % ; > - - - - - - > ; % % % % - ; ; ; - - % % = * * % & % % / ( _ : ~ ! % % ",
"' ) ! : < / [ } % % & % * * = % % % ; - - - - % % % % - - - - - - - - - - % % % % - - - - ; % % % = * * % & % % | 1 2 / 3 { ! % ",
"' ) { 1 4 5 | 6 % % & % * * = % % % ; ; ; ; > - - - - > ; ; ; ; ; ; ; ; > - - - - > ; ; ; ; % % % = * * % & % % 7 8 9 5 4 3 { ! ",
"' 0 a ( 5 : b c % * & % * * = % % * * ; ; ; > - - - - > ; ; ; ; ; ; ; ; > - - - - > ; ; ; * * % % = * * % & % % d e f g h h i ! ",
"' j k l m n o p * % & % * * = % % * * * * % - - - - - > - - ; ; ; ; - - > - - - - - % * * * * % % = * * % & * % q r s t / h u ~ ",
"v w 4 / x y z A % % & % * * = % - % * * * * % ; ; ; ; > - - - - - - - - > ; ; ; ; % * * * * % - % = * * % & % * B C % D 6 E F ] ",
"G H I ^ u J K B % % & % * * = % - % % % % ; - ; ; ; ; - - - - - - - - - - ; ; ; ; - ; % % % % - % = * * % & % % % % % % L / ; 4 ",
"M N / 4 5 ~ 0 0 % % & % * * > % - % % % ; ; - - - - > ; ; ; ; ; ; ; ; ; ; > - - - - ; ; % % % - % > * * % & % % % % % C O / ; ^ ",
"P Q 5 l { ! % % % % & % * * > - % % % ; ; ; - - - - > ; ; ; ; ; ; ; ; ; ; > - - - - ; ; ; % % % - > * * % & % % % % % R t E ^ S ",
"G w 4 l O % % % % % & % * * * > % % % ; ; ; - - - > - ; ; ; ; ; ; ; ; ; ; - > - - - ; ; ; % % % > * * * % & % % % % % t T ^ 5 m ",
"U V ; / O % % % % % & % * * * > % % % ; ; ; - - - > - - - - - - - - - - - - > - - - ; ; ; % % % > * * * % & % % % % % g } I l | ",
"W X ( ] Y % % % % % & % * * * * > % % ; ; ; > - - > - - - - - - - - - - - - > - - > ; ; ; % % > * * * * % & % * % % % { 1 ^ / i ",
"Z X 5 ~ % `  ...* % & % % * * * * > > ; ; ; > - > > - - - - - - - - - - - - > > - > ; ; ; > > * * * * % % & * % % % % Y +.E @.m ",
"Z X ] !  .#.$.K % * & % % * * * * % % > > > > > > > > > > > > > > > > > > > > > > > > > > % % * * * * % % & % % s % 0 m 3 ^ E +.",
"Z X S %.o z z z % % & % % % % % % % % % % % % % % % % % % % % % % % % % % % % % % % % % % % % % % % % % % & % % &.7 *.=.-.^ ; ;.",
"Z X u ` >.,.*.>.% % & % % % % % % % % % % % % % % % % % % % % % % % % % % % % % % % % % % % % % % % % % % & % % '.o ).!.x / ~.w ",
"Z X u % B {.{.7 % % & % % % % % ; ; ; ; ; ; ; ; ; ; ; ; ; ; ; ; ; ; ; ; ; ; ; ; ; ; ; ; ; ; ; ; % % % % % & % % A p ].B ~ l @.m ",
"Z X u R % % % % % % = ; ; ; ; ; - - > ; % % % % % > - - > % % % % % % > - - > % % % % % % > - - ; ; ; ; ; = % % n ^.b % m 2 / i ",
"U /.] ! % % % % % % = ; ; ; ; ; - - > % % % % % % > - - > % % % % % % > - - > % % % % % % > - - ; ; ; ; ; = % % % 0 % % m /.; ;.",
"(.;.3 { ! % % % % * = ; ; ; ; ; - > > - - - - - - - > > - - - - - - - - > > - - - - - - - > > - ; ; ; ; ; = % % % % % % ~ _.^ 5 ",
"G :.^ 5 Y % % % * % * > ; ; ; ; > - - - - - - - - - - > - - - - - - - - > - - - - - - - - - - > ; ; ; ; > % * % % % % % ! m 1 5 ",
"G <.I / O % % 0 % % = % > > ; ; > - - - - - - - - - - > - - - - - - - - > - - - - - - - - - - > ; ; > > % = % * % % % % % [.k [ ",
"M }./ l O % |.,.% % = % % % > > > - - - - - - - - - - > - - - - - - - - > - - - - - - - - - - > > > % % % = % % % % % % % [.k I ",
"P 1.3 l Y 2.o '.% % = ; % % % % > - - - - - - - - - - > - - - - - - - - > - - - - - - - - - - > % % % % ; = % % 3.2.{.n 2.0 k I ",
"M 4.4 / x $.>.o % % = ; ; ; % % > - - - - - - - - - - > - - - - - - - - > - - - - - - - - - - > % % ; ; ; = % % 5.z 6.!.d ` k I ",
"G <.; ^ _ 7.8.B % % = ; ; ; ; ; > - - - - - - > % % % % % > - - - - > % % % % % > - - - - - - > ; ; ; ; ; = % % ).z ).z A 9.k I ",
"M 0.E ^ 5 ~ 0 C % % = ; ; ; ; ; > > - - - - - > - - - - - - > - - > - - - - - - > - - - - - > > ; ; ; ; ; = % % y r o A a.! k I ",
"P 1.3 [ a Y % % % % = ; ; ; ; ; ; ; > - - - - > - - - - - - > - - > - - - - - - > - - - - > ; ; ; ; ; ; ; = % * n ..b. .% O 3 I ",
"c.}./ ^ 3 : ! % * % * = - ; ; ; - - > - - - > ; ; ; ; ; ; ; > - - > ; ; ; ; ; ; ; > - - - > - - ; ; ; - = % * % d.% d.% Y u 4 I ",
"P e.l I h 6 ! % % * % = - - ; ; - - > = = = > ; ; ; ; ; ; ; > = = > ; ; ; ; ; ; ; > = = = > - - ; ; - - = % % % % % % % m /.f.E ",
"P L 3 ^ g.{ ! % % % = % - - - - - - > = = = > - - - - - - - > = = > - - - - - - - > = = = > - - - - - - % = % % % % % h.i E [ i.",
"(.j.^ [ k.[.% % % % = % % % - - - > > = = = > - - - - - - - > = = > - - - - - - - > = = = > > - - - % % % = % % % % % }./ h 5 { ",
"l.m.I l O % % % % % = ; % % % % - > > > > > > - - - - - - - > > > > - - - - - - - > > > > > > - % % % % ; = % % % % % i ^ I / | ",
"Z n.E w [.% % % % * = ; ; ; ; ; - > > - - - - - > = = > - - - - - - - - > = = > - - - - - > > - ; ; ; ; ; = % % % % % m 5 ^ 2 6 ",
"Z X <.Y 0 2.o.{.* % = - ; ; ; ; - > - - - - - - > > > > - - - - - - - - > > > > - - - - - - > - ; ; ; ; - = * % % % % Y +.[ 5 : ",
"Z X ] % 2.>.y 6.% % = - - ; ; ; - > - - - - - - - > % % % % % % % % % % % % > - - - - - - - > - ; ; ; - - = % *  .s {.x 3 p.^ _ ",
"Z X u ` d >.z q.% % % > - - - ; - > - - - - - - - > - - - - - - - - - - - - > - - - - - - - > - ; - - - > % % % o |.A r.g 4 I 5 ",
"Z X S n y K ,.s.% % = % > > - - - > - - - - - - - > - - - - - - - - - - - - > - - - - - - - > - - - > > % = % % '.y q.!.h.l / i ",
"Z X ] ! ..s s ..% = = % % % > > > > - - - - - - - > = = = = = = = = = = = = > - - - - - - - > > > > % % % = = % ,.'.*.{.m l k L ",
"t.F ] ! % % % % = % = ; ; % % % > > > > > > > > = % % % % % % % % % % % % % % = > > > > > > > > % % % ; ; = % = {.|.{.% m / 4 i.",
"u.2 S [.% % % % = % = ; ; ; ; ; > % % % % % % % = % % % % % % % % % % % % % % = % % % % % % % > ; ; ; ; ; = % = % d.% % m 2 ; ;.",
"G v.< t ! % % % = % = ; ; ; ; ; > % % % % % % % = - - - - - - - - - - - - - - = % % % % % % % > ; ; ; ; ; = % = % % % % Y ] 4 5 ",
"G v.I < ~ % % % = % = ; ; ; ; ; > - - - - - - - = = = = = = = = = = = = = = = = - - - - - - - > ; ; ; ; ; = % = % % % % % Y 5 3 ",
"G w.x./ O % s ..= % = ; ; ; ; ; > - - - - - - - = = = = = = = = = = = = = = = = - - - - - - - > ; ; ; ; ; = % = % % % % % j k 4 ",
"y.e.z.l ~ 0 K !.= % = ; ; ; ; ; > - - - - - - - = = - - - - - - - - - - - - = = - - - - - - - > ; ; ; ; ; = % = % A.% 0 C R k I ",
"P 1.;.l x r y p = % = ; ; ; ; ; > - - - - - - - = = = = = = = = = = = = = = = = - - - - - - - > ; ; ; ; ; = % =  .B.n B C.s k I ",
"v D.} /.E.#.e *.= % = ; ; ; ; ; > - - - - - - - = F.F.F.F.F.F.F.F.F.F.F.F.F.F.= - - - - - - - > ; ; ; ; ; = % = *.p A o q.b S I ",
"G <.I p.5 G.2.n = % = ; ; ; ; ; > - - - - - - - = F.F.F.F.F.F.F.F.F.F.F.F.F.F.= - - - - - - - > ; ; ; ; ; = % = H.I.'.J.,.K.k I ",
"c.e.l 4 u E.% % = % > ; ; ; ; ; > - - - - - - - = F.F.F.F.F.F.F.F.F.F.F.F.F.F.= - - - - - - - > ; ; ; ; ; > % = !.B L.,.3.R k I ",
"P M.5 N.g h.% % = ; % > ; ; ; ; > - - - - - - - = F.F.F.F.F.F.F.F.F.F.F.F.F.F.= - - - - - - - > ; ; ; ; > % ; = s % C C ! { < f.",
"c.O.( n.[ t ! % = ; % > ; ; ; ; > - - - - - - - = F.F.F.F.F.F.F.F.F.F.F.F.F.F.= - - - - - - - > ; ; ; ; > % ; = % % % % O P.n.I ",
"P L 3 I } | ! % = ; ; % > > ; ; > - - - - - - - = F.F.F.F.F.F.F.F.F.F.F.F.F.F.= - - - - - - - > ; ; > > % ; ; = % % % % m / ; l ",
"P : g.4 _.E.% % = ; ; ; % % > > > - - - - - - - = F.F.F.F.F.F.F.F.F.F.F.F.F.F.= - - - - - - - > > > % % ; ; ; = % % % % L 2 l 6 ",
"Q.;.R./ m ! % % = ; ; ; ; % % % = = = = = = = = = F.F.F.F.F.F.F.F.F.F.F.F.F.F.= = = = = = = = = % % % ; ; ; ; = % % % [.| /.5 m ",
"S.T.; / O % % % = ; ; ; ; ; ; > % % % % % % % % = & F.& F.& F.& & F.& F.& F.& = % % % % % % % % > ; ; ; ; ; ; = ..0 ..m g.p.^ ] ",
"U.2 ; / O % % % = ; ; ; ; ; ; > - - - - - - - - = = & F.& & & & & & & & F.& = = - - - - - - - - > ; ; ; ; ; ; = y |.I.8.| 4 ; ;.",
"M }./ 4 i.~ d. .& ; ; ; ; ; ; > - - - - - - - - = = = = = = = = = = = = = = = = - - - - - - - - > ; ; ; ; ; ; & '.d z V.Y / 2 i ",
"' W.] h ( t 3.6.% & ; ; ; ; ; > - - - - - - - - = = = = = = = = = = = = = = = = - - - - - - - - > ; ; ; ; ; & % 6.X.Y...Z./ w Y ",
"' 0 +.^ h i `.q ; % & ; ; ; ; > - - - - - - - - = > > > > > > > > > > > > > > = - - - - - - - - > ; ; ; ; & % %  +7  +6 2 4 | ! ",
"' ) ~ u 4 T .+++% % % & ; ; ; > - - - - - - - - = > @+> @+> @+@+@+> @+> @+> @+= - - - - - - - - > ; ; ; & % % % <.k <./ 4 ] O ! ",
"' ) ! O ] 5 l 2 % % % % & & ; > - - - - - - - - = @+@+@+@+@+@+@+@+@+@+@+@+@+@+= - - - - - - - - > ; & & % % % % I p.l ;.] ~ ! % ",
"' ) % % [.Y a l % ; % % % ; & & - - - - - - - - = % ; % ; % ; % % ; % ; % ; % = - - - - - - - - & & % % % % % % ( / i ~ [.! % % ",
"#+$+$+$+$+$+%+&+% % % % % % % % & & & & & & & & ; % % % % % % % % % % % % % % ; & & & & & & & & % % % % % % % % *+&+=+$+$+$+$+-+"};
