/* XPM */
static char * Untitled_xpm[] = {
"64 64 195 2",
"  	c #E8DFBE",
". 	c #E5DBB4",
"+ 	c #E5DBB6",
"@ 	c #E5DCB6",
"# 	c #E4D8B3",
"$ 	c #E1CFAD",
"% 	c #E0CEAC",
"& 	c #E3D4B0",
"* 	c #E3D5B1",
"= 	c #E3D4B1",
"- 	c #E5DBB5",
"; 	c #E2D1AF",
"> 	c #E0CDAC",
", 	c #E5DAB5",
"' 	c #E5DBB3",
") 	c #ECE5CB",
"! 	c #DCCD90",
"~ 	c #D8C880",
"{ 	c #D6C47C",
"] 	c #D5BE76",
"^ 	c #D3BA73",
"/ 	c #D0B169",
"( 	c #D0AF67",
"_ 	c #D2B76F",
": 	c #D4BE76",
"< 	c #D1B26B",
"[ 	c #D3B971",
"} 	c #D1B36B",
"| 	c #D2B56D",
"1 	c #D3B870",
"2 	c #D4BD75",
"3 	c #D1B46C",
"4 	c #D3BA72",
"5 	c #D1B26A",
"6 	c #D2B870",
"7 	c #D2B56E",
"8 	c #D5BF77",
"9 	c #D7C67E",
"0 	c #D8C981",
"a 	c #E2D7AB",
"b 	c #DCCE93",
"c 	c #D8C77F",
"d 	c #D7C47C",
"e 	c #D6C37B",
"f 	c #D3BB73",
"g 	c #D0B068",
"h 	c #D2B66E",
"i 	c #D7C57D",
"j 	c #D4BB73",
"k 	c #D5BE77",
"l 	c #D6C37C",
"m 	c #D0B26A",
"n 	c #E3D8AD",
"o 	c #D6C27B",
"p 	c #D0B16A",
"q 	c #D4BC75",
"r 	c #D8C67F",
"s 	c #D3B871",
"t 	c #D8C67E",
"u 	c #D6C179",
"v 	c #D2B66F",
"w 	c #D5C079",
"x 	c #D4BC74",
"y 	c #D5C179",
"z 	c #DCCD89",
"A 	c #E1D592",
"B 	c #DACB84",
"C 	c #E0D491",
"D 	c #DED18D",
"E 	c #DBCD86",
"F 	c #E2D794",
"G 	c #DBCD87",
"H 	c #DFD08E",
"I 	c #D9C982",
"J 	c #DED18C",
"K 	c #E0D592",
"L 	c #E0D591",
"M 	c #DACB85",
"N 	c #DFD18F",
"O 	c #DBCB85",
"P 	c #D9C981",
"Q 	c #DFD08D",
"R 	c #DDCE89",
"S 	c #D9C680",
"T 	c #DCCE88",
"U 	c #D9CA83",
"V 	c #DDD08C",
"W 	c #E1D693",
"X 	c #E0D490",
"Y 	c #DFD38F",
"Z 	c #DBCD88",
"` 	c #D9CA82",
" .	c #DDD08B",
"..	c #DED28D",
"+.	c #DCCD88",
"@.	c #DED08C",
"#.	c #DBCC86",
"$.	c #D6C27A",
"%.	c #E2D895",
"&.	c #E2D795",
"*.	c #DFD28E",
"=.	c #E3D896",
"-.	c #E2D694",
";.	c #DACC85",
">.	c #E3D997",
",.	c #E1D694",
"'.	c #DED28E",
").	c #DBCD92",
"!.	c #DDCF8A",
"~.	c #E3D998",
"{.	c #D8C881",
"].	c #E0D390",
"^.	c #E2D896",
"/.	c #DACA83",
"(.	c #D5C078",
"_.	c #D4BD76",
":.	c #E3D7AC",
"<.	c #DACA85",
"[.	c #DCCF8A",
"}.	c #D8C87F",
"|.	c #DBCC85",
"1.	c #DCCE89",
"2.	c #DFCDA5",
"3.	c #DCCD92",
"4.	c #D5BF78",
"5.	c #DFCFA6",
"6.	c #DBCC91",
"7.	c #D7C67F",
"8.	c #D7C087",
"9.	c #D5BA81",
"0.	c #D5BA82",
"a.	c #DFD390",
"b.	c #DCCF89",
"c.	c #DDCE8A",
"d.	c #D4BB74",
"e.	c #DFD28F",
"f.	c #D5BB83",
"g.	c #DAC78D",
"h.	c #D2B770",
"i.	c #E1D4AA",
"j.	c #DECAA3",
"k.	c #DCCD93",
"l.	c #DDC8A1",
"m.	c #D8C780",
"n.	c #D1B46D",
"o.	c #D7C37C",
"p.	c #D8C57E",
"q.	c #D1B36C",
"r.	c #D7C57E",
"s.	c #DDC7A1",
"t.	c #DFCCA4",
"u.	c #E2D6AC",
"v.	c #D9C58B",
"w.	c #D7C77F",
"x.	c #DAC883",
"y.	c #E4D998",
"z.	c #D8C38A",
"A.	c #D7C47D",
"B.	c #D3B972",
"C.	c #D0B069",
"D.	c #DDD08A",
"E.	c #D9C881",
"F.	c #DAC984",
"G.	c #D1B56D",
"H.	c #D6C17A",
"I.	c #DEC9A2",
"J.	c #E1D3A9",
"K.	c #DAC88F",
"L.	c #D6BD85",
"M.	c #E1D593",
"N.	c #E3D897",
"O.	c #DDCF8B",
"P.	c #D5BC76",
"Q.	c #D8C27D",
"R.	c #D8C47E",
"S.	c #D8C17D",
"T.	c #D5BE78",
"U.	c #E3D8AC",
"V.	c #DFD29E",
"W.	c #DACC8B",
"X.	c #DBCC8D",
"Y.	c #DBCB8D",
"Z.	c #DACA8C",
"`.	c #D8C688",
" +	c #D4B87C",
".+	c #D4B77A",
"++	c #D4B87B",
"@+	c #D5BB7F",
"#+	c #D9C98A",
"$+	c #D6C183",
"%+	c #DAC98A",
"&+	c #D5BC7F",
"*+	c #D4B67A",
"=+	c #D8C587",
"-+	c #DACB8A",
"  . + + + + + + + + @ # $ % % % % % & + + + * % % % % % % % = + - ; > % % % > ; , @ @ # $ > % % % % > ; , @ + + + + + + + + ' ) ",
"! ~ ~ ~ ~ ~ { ] ] ] ] ^ / ( ( ( ( ( _ ] : : _ < [ } | 1 / ( _ : 2 3 ( ( ( ( ( } 2 ] ] 4 5 6 7 } [ } ( } 2 ] ] : 8 9 0 ~ ~ ~ ~ a ",
"b ~ ~ c d e f g g g } 7 7 | | | | | } / | h | 4 i j k l _ | h h h 7 | | | | 7 3 / 3 h 7 _ e 8 ^ i f | 7 | m } 3 5 ] { i ~ ~ ~ n ",
"b ~ ~ o | 3 } p / / q r 9 r r 9 c 9 2 s d 9 i 9 ~ 9 c c 9 i i 9 c 9 t r 9 r c u v w 9 i 9 c c 9 ~ 9 i 9 d s q u 7 3 } s i ~ ~ n ",
"b ~ u h m x y y y y z A B C D E F G z H I ~ ~ ~ ~ ~ ~ ~ ~ ~ ~ E F G J K B L D M N O ~ ~ ~ ~ ~ ~ ~ ~ ~ ~ P Q R M H S 6 5 [ d ~ n ",
"b ~ 2 5 j d T J U V A W X W A C W C A W Y B Z J `  .T B ..B G C W C K W X W A C W C +.B ..B +.@.`  .T B Y W A C A #.x ( 5 $.0 n ",
"b i 4 h 9 #.C %. .&.*.G =.T D -.;.W *.G =...C %. .&.L D >.D C ,.;.W *.+.=.T ..,.;.W L D >.D C %. .&.L D =.T '.,.U ~ 8 3 5 k 9 n ",
").4 / 7 r F C !.~.V I 0 B P I U {.U ` 0 #.%.C  .~. .].^.T &.L /.{.U ` 0 B P I U {.U X ^.T &.C  .~. .X =.#.0 I U ~ ~ c (.5 5 _.:.",
")._ ( m [ <.E U [.U }.~ ~ ~ ~ ~ ~ ~ ~ ~ ~ T #.U [.U |.1.I T #.~ ~ ~ ~ ~ ~ ~ ~ ~ ~ ~ #.1.I T #.U [.U #.1.{.~ ~ ~ ~ ~ 0 o 5 ( 3 2.",
"3.4.h } f d ~ ~ }.~ ~ ~ ~ ~ ~ ~ ~ ~ ~ ~ ~ }.~ ~ }.~ ~ }.~ }.~ ~ ~ ~ ~ ~ ~ ~ ~ ~ ~ ~ ~ }.~ }.~ ~ }.~ ~ }.~ ~ ~ ~ ~ ~ 0 e 5 ( | 5.",
"b i 4 h 9 ~ ~ ~ ~ ~ ~ ~ ~ ~ ~ ~ ~ ~ ~ ~ ~ ~ ~ ~ ~ ~ ~ ~ ~ ~ ~ ~ ~ ~ ~ ~ ~ ~ ~ ~ ~ ~ ~ ~ ~ ~ ~ ~ ~ ~ ~ ~ ~ ~ ~ ~ ~ ~ 9 8 5 3 8 n ",
"6.[ / h 9 ~ ~ ~ ~ ~ ~ ~ ~ ~ ~ ~ ~ ~ ~ ~ ~ ~ ~ ~ ~ ~ ~ ~ ~ ~ ~ ~ ~ ~ ~ ~ ~ ~ ~ ~ ~ ~ ~ ~ ~ ~ ~ ~ ~ ~ ~ ~ ~ ~ ~ ~ ~ ~ ] 5 5 8 7.n ",
"8.5 ( h 9 ~ ~ ~ ~ ~ ~ ~ ~ ~ ~ ~ ~ ~ ~ ~ ~ ~ ~ ~ ~ ~ ~ ~ ~ ~ ~ ~ ~ ~ ~ ~ ~ ~ ~ ~ ~ ~ ~ ~ ~ ~ ~ ~ ~ ~ ~ ~ ~ ~ ~ ~ ~ ~ q ( / h w n ",
"9.g | ] c ~ ~ ~ }.~ }.B ..B Z J `  .T B ..B c ~ }.~ ~ }.~ }.~ ~ {.V T B ..B +.J ` V T }.~ }.~ ~ }.~ ~ }.~ ~ ~ ~ ~ ~ $.[ 5 1 $.n ",
"0.g x ~ ~ #.B I G ` U J >...C %. .&.L D >.../.I G I B #.P #.B I 1.&.L D >.D C %. .&.A #.P #.B I G I B #.{.~ ~ ~ ~ ~ 9 ] } ] 9 n ",
"0.g x ~ B &.X 1.>.!.Y =.T &.C !.~. .a.=.T &.].1.>.!.Y %.G &.a.1.>. .].^.T &.C  .~. .X &.G &.a.b.>.!.Y %.B ~ 0 I ~ I (.} / 5 ] n ",
"0.g j #.F Y C F ..F A 1.I T #.U [.U ;.1.I T K F ..F K Y %.Y L &.@.U ;.T I T #.U [.U M Y %.Y L F ..F K Y &.G J L B L c.2 p ( q n ",
"0.g d.M X #.b.Y U *. .~ ~ }.~ ~ }.~ ~ }.~ }.!.Y U *.!.M X ;.b.Y P ~ ~ }.~ }.~ ~ }.~ c M X ;.[.e.U *.!.M K C K W C W  .o } s $.n ",
"0.g x ~ ~ ~ ~ ~ ~ ~ ~ ~ ~ ~ ~ ~ ~ ~ ~ ~ ~ ~ ~ ~ ~ ~ ~ ~ ~ ~ ~ ~ ~ ~ ~ ~ ~ ~ ~ ~ ~ ~ ~ ~ ~ ~ ~ ~ ~ ~ ~ ~ U W *.+.=.T ~ $.3 ] 9 n ",
"f.g x ~ ~ ~ ~ ~ ~ ~ ~ ~ ~ ~ ~ ~ ~ ~ ~ ~ ~ ~ ~ ~ ~ ~ ~ ~ ~ ~ ~ ~ ~ ~ ~ ~ ~ ~ ~ ~ ~ ~ ~ ~ ~ ~ ~ ~ ~ ~ ~ ~ ~ U I 0 /.P ~ $.< 5 ] n ",
"g.| x ~ ~ ~ ~ ~ ~ ~ ~ ~ ~ ~ ~ ~ ~ ~ ~ ~ ~ ~ ~ ~ ~ ~ ~ ~ ~ ~ ~ ~ ~ ~ ~ ~ ~ ~ ~ ~ ~ ~ ~ ~ ~ ~ ~ ~ ~ ~ ~ ~ ~ ~ ~ ~ ~ ~ ~ $.5 ( q n ",
"3.6 h (.c ~ ~ ~ ~ ~ ~ ~ ~ ~ ~ ~ ~ ~ ~ ~ ~ ~ ~ ~ ~ ~ ~ ~ ~ ~ ~ ~ ~ ~ ~ ~ ~ ~ ~ ~ ~ ~ ~ ~ ~ ~ ~ ~ ~ ~ ~ ~ ~ ~ ~ ~ ~ ~ ~ i d.} 2 n ",
").h.( h 9 ~ ~ ~ ~ ~ ~ ~ ~ ~ ~ ~ ~ ~ ~ ~ ~ ~ ~ ~ ~ ~ ~ ~ ~ ~ ~ ~ ~ ~ ~ ~ ~ ~ ~ ~ ~ ~ ~ ~ ~ ~ ~ ~ ~ ~ ~ ~ ~ ~ ~ ~ ~ ~ ~ ~ 9 _ 4 i.",
").[ g h 9 ~ 0 I ~ I P ~ ~ ~ ~ ~ ~ ~ ~ ~ ~ ~ 0 I ~ I P {.I {.0 I ~ ~ ~ ~ ~ ~ ~ ~ ~ ~ ~ {.I {.0 I ~ I P {.I {.~ ~ ~ ~ ~ ~ 9 _ / j.",
"k.l [ h 9 ~ J A B C ..~ ~ ~ ~ ~ ~ ~ ~ ~ ~ ~ J A B C D #.,.G @.A I ~ ~ ~ ~ ~ ~ ~ ~ ~ }.#.-.G J K B L J E -.G }.~ ~ ~ ~ ~ 9 _ ( l.",
"3.u _ h c J A W C A A J `  .T B ..B +.J `  .A W C A A C W C K W Y B +.J ` V T B ..B G C W C K W C A A C W C +.B ..B T J m._ ( l.",
").6 ( n.o.A *.G ^.T D %. .&.L D >...C %. .&.*.G ^.T D ,.;.W *.G =...C %. .&.L D >...C W ;.W *.+.^.T ..W ;.W L D >.D C ,.{._ ( l.",
").[ g / h p.U 0 /.P P !.~. .a.=.T &.C !.~. .I 0 /.P I U {.U I 0 #.%.C  .~. .].^.T &.C U {.U I 0 /.P I U {.U C %.T %.C U r _ ( l.",
"k.l [ 3 (.9 ~ ~ ~ ~ ~ U b.U ;.T I T #.U b.U }.~ ~ ~ ~ ~ ~ ~ ~ ~ ~ T #.U b.U ;.T I T #.~ ~ ~ ~ ~ ~ ~ ~ ~ ~ ~ #.T I T #.~ 9 _ ( l.",
"3.u _ q.: r.~ ~ ~ ~ ~ ~ }.~ ~ }.~ }.~ ~ }.~ ~ ~ ~ ~ ~ ~ ~ ~ ~ ~ ~ }.~ ~ }.~ ~ }.~ }.~ ~ ~ ~ ~ ~ ~ ~ ~ ~ ~ ~ ~ }.~ }.~ 9 : 3 ( s.",
"3.x } g 5 $.~ ~ ~ ~ ~ ~ ~ ~ ~ ~ ~ ~ ~ ~ ~ ~ ~ ~ ~ ~ ~ ~ ~ ~ ~ ~ ~ ~ ~ ~ ~ ~ ~ ~ ~ ~ ~ ~ ~ ~ ~ ~ ~ ~ ~ ~ ~ ~ ~ ~ ~ ~ 0 o < g } t.",
"b i j g } $.~ ~ ~ ~ ~ ~ ~ ~ ~ ~ ~ ~ ~ ~ ~ ~ ~ ~ ~ ~ ~ ~ ~ ~ ~ ~ ~ ~ ~ ~ ~ ~ ~ ~ ~ ~ ~ ~ ~ ~ ~ ~ ~ ~ ~ ~ ~ ~ ~ ~ ~ ~ ~ u 5 / x u.",
"3.2 3 3 (.9 ~ ~ ~ ~ ~ ~ ~ ~ ~ ~ ~ ~ ~ ~ ~ ~ ~ ~ ~ ~ ~ ~ ~ ~ ~ ~ ~ ~ ~ ~ ~ ~ ~ ~ ~ ~ ~ ~ ~ ~ ~ ~ ~ ~ ~ ~ ~ ~ ~ ~ ~ ~ w h 5 2 i n ",
"v.3 ( h 9 ~ ~ ~ ~ ~ ~ ~ }.~ ~ }.~ }.~ ~ }.~ ~ ~ ~ ~ ~ ~ ~ ~ ~ ~ ~ }.~ ~ }.~ ~ }.~ }.~ ~ ~ ~ ~ ~ ~ ~ ~ ~ ~ ~ ~ ~ ~ ~ x ( / 4 e n ",
"0.g 5 4 9 ~ ~ ~ ~ ~ ~ I G ` B #.P #.B I G ` ~ ~ ~ ~ ~ ~ ~ ~ ~ ~ ~ #.B I G ` B #.P #.B ~ ~ ~ ~ ~ ~ ~ ~ ~ ~ ~ ~ ~ ~ ~ 4.3 / n.(.n ",
"0.g ^ 9 ~ I P {.I {.~ 1.>.!.Y %.G F X b.>.!.{.{.I {.0 I ~ I P ~ B &.].b.>.!.Y %.G &.X I ~ I P {.I {.P I ~ ~ ~ ~ ~ ~ w.8 3 8 7.n ",
"0.g x ~ I L D #.-.G  .F ..F A *.%.Y C F ..F D #.-.G @.A B C D #.&.Y L F ..F K *.%.Y K K B L J E -.G J A I ~ ~ ~ ~ ~ (.h / h w n ",
"0.g x B Y W A C W C A Y U *.!.M X ;.b.*.U *.A C W C K A C A A C K ;.b.*.U *.!.M X ;.1.A C A A C W C K W Y B T J ` J x.1 / ( x n ",
"0.g j G ^.T D ,.;.W Y ~ ~ ~ ~ ~ ~ ~ ~ ~ ~ ~ '.W ;.W *.G ^.T D ,.U ~ ~ ~ ~ ~ ~ ~ ~ ~ ~ G ^.T ..W ;.W *.G =...C &. .&.*.$.} 3 4.n ",
"0.g x 0 /.P I U {.U ` ~ ~ ~ ~ ~ ~ ~ ~ ~ ~ ~ I U {.U I 0 /.P I U ~ ~ ~ ~ ~ ~ ~ ~ ~ ~ ~ 0 /.P I U {.U I 0 #.%.X  .y. .` $.3 8 w.n ",
"0.g x ~ ~ ~ ~ ~ ~ ~ ~ ~ ~ ~ ~ ~ ~ ~ ~ ~ ~ ~ ~ ~ ~ ~ ~ ~ ~ ~ ~ ~ ~ ~ ~ ~ ~ ~ ~ ~ ~ ~ ~ ~ ~ ~ ~ ~ ~ ~ ~ ~ {.T #.U b.U ~ $.} h w n ",
"z.} x ~ ~ ~ ~ ~ ~ ~ ~ ~ ~ ~ ~ ~ ~ ~ ~ ~ ~ ~ ~ ~ ~ ~ ~ ~ ~ ~ ~ ~ ~ ~ ~ ~ ~ ~ ~ ~ ~ ~ ~ ~ ~ ~ ~ ~ ~ ~ ~ ~ ~ }.~ ~ }.~ ~ $.5 ( q n ",
").h.[ d ~ ~ ~ ~ ~ ~ ~ ~ ~ ~ ~ ~ ~ ~ ~ ~ ~ ~ ~ ~ ~ ~ ~ ~ ~ ~ ~ ~ ~ ~ ~ ~ ~ ~ ~ ~ ~ ~ ~ ~ ~ ~ ~ ~ ~ ~ ~ ~ ~ ~ ~ ~ ~ ~ ~ { _ / 2 n ",
").6 g 1 9 ~ ~ ~ ~ ~ ~ ~ ~ ~ ~ ~ ~ ~ ~ ~ ~ ~ ~ ~ ~ ~ ~ ~ ~ ~ ~ ~ ~ ~ ~ ~ ~ ~ ~ ~ ~ ~ ~ ~ ~ ~ ~ ~ ~ ~ ~ ~ ~ ~ ~ ~ ~ ~ ~ ~ d h d.:.",
").h.( h 9 ~ ~ ~ ~ ~ ~ ~ ~ ~ ~ ~ ~ ~ ~ ~ ~ ~ ~ ~ ~ ~ ~ ~ ~ ~ ~ ~ ~ ~ ~ ~ ~ ~ ~ ~ ~ ~ ~ ~ ~ ~ ~ ~ ~ ~ ~ ~ ~ ~ ~ ~ ~ ~ ~ ~ 7._ q.2.",
"3.(.h h 9 ~ T J ` V 1.~ ~ }.~ ~ }.~ ~ }.~ }.T J ` @.T B '.B T J 0 ~ ~ }.~ }.~ ~ }.~ c B '.B T J ` J T B '.B c ~ }.~ ~ ~ 9 _ ( s.",
"b A.4 h r #.C %. .&.A #.P #.B I G ` B #.P #.L %. .&.L D >...C %.b.I B #.P #.B I G ` /.D >...C &. .&.L D >...B I G ` B E c _ ( l.",
").B.C.7 r F C !.~. .a.%.G F X b.>.!.Y %.G &.C !.~. .a.^.T &.C !.>.!.Y %.G &.].b.>.!.Y ^.T &.X D.y. .X %.T %.a.b.>.!.Y &.E._ ( l.",
")._ ( m [ F.#.U b.U M *.^.Y C &...F K *.^.Y ;.U b.U ;.T I T #.`  .F K *.^.Y L F D F A T I T #.U b.U ;.T I T A F D F A 1.c _ ( l.",
"3.(.h } d.d ~ ~ }.~ c B X ;.b.*.U '.!.M X ;.c ~ }.~ ~ }.~ }.~ ~ 0 *.!.M X ;.b.*.U *.!.}.~ }.~ ~ }.~ ~ }.~ }.!.*.U *.!.~ w._ ( l.",
"b d 4 G.H.c ~ ~ ~ ~ ~ ~ ~ ~ ~ ~ ~ ~ ~ ~ ~ ~ ~ ~ ~ ~ ~ ~ ~ ~ ~ ~ ~ ~ ~ ~ ~ ~ ~ ~ ~ ~ ~ ~ ~ ~ ~ ~ ~ ~ ~ ~ ~ ~ ~ ~ ~ ~ ~ c $.| ( l.",
"3.^ 5 C.3 $.~ ~ ~ ~ ~ ~ ~ ~ ~ ~ ~ ~ ~ ~ ~ ~ ~ ~ ~ ~ ~ ~ ~ ~ ~ ~ ~ ~ ~ ~ ~ ~ ~ ~ ~ ~ ~ ~ ~ ~ ~ ~ ~ ~ ~ ~ ~ ~ ~ ~ ~ ~ ~ e n.C./ I.",
"k.e [ g / H.~ ~ ~ ~ ~ ~ ~ ~ ~ ~ ~ ~ ~ ~ ~ ~ ~ ~ ~ ~ ~ ~ ~ ~ ~ ~ ~ ~ ~ ~ ~ ~ ~ ~ ~ ~ ~ ~ ~ ~ ~ ~ ~ ~ ~ ~ ~ ~ ~ ~ ~ ~ ~ $.5 ( [ J.",
"b u _ } d.i ~ ~ ~ ~ ~ ~ ~ ~ ~ ~ ~ ~ ~ ~ ~ ~ ~ ~ ~ ~ ~ ~ ~ ~ ~ ~ ~ ~ ~ ~ ~ ~ ~ ~ ~ ~ ~ ~ ~ ~ ~ ~ ~ ~ ~ ~ ~ ~ ~ ~ ~ ~ 0 o } [ e n ",
"K.h ( h 9 ~ ~ ~ ~ ~ ~ ~ ~ ~ ~ ~ ~ ~ ~ ~ ~ ~ ~ ~ ~ ~ ~ ~ ~ ~ ~ ~ ~ ~ ~ ~ ~ ~ ~ ~ ~ ~ ~ ~ ~ ~ ~ ~ ~ ~ ~ ~ ~ ~ ~ ~ ~ ~ 9 ] } : 9 n ",
"L./ ( h 9 ~ ~ ~ ~ ~ ~ {.I {.P I ~ I P {.I {.~ ~ ~ ~ ~ ~ ~ ~ ~ ~ ~ I P {.I {.P I ~ I P ~ ~ ~ ~ ~ ~ ~ ~ ~ ~ ~ P I ~ I (.} / 5 ] n ",
"g.| ( h 9 ~ ~ ~ ~ ~ }.#.F G @.A B L D #.F G }.~ ~ ~ ~ ~ ~ ~ ~ ~ I K D E F G J A B L D ~ ~ ~ ~ ~ ~ ~ ~ ~ ~ ~ D A B K !.2 m ( q n ",
"b (.h } 2 i }.B *.M G C W L K A C A A C W L T B *.B T J ` J 1.B Y M.A C W L K A C A A J ` J T B *.B T J ` J A A C A  .e } s $.n ",
"b ~ 2 g 5 $.B D >.'.C W M W *.G %.T D W M W K D >...C &. .&.L D =.T D W M W *.G %.T D &.V &.L D >...C &. .&.'.+.^.T 9 ] 3 $.~ n ",
"b ~ ] / 5 (.D &.T -.C U {.U I 0 U 0 I U {.U a.&.T &.C !.y. .a.=.#.0 I U {.U I 0 U 0 P !.N.O.].%.T &.X !.~.!.m.m.I m.2 5 3 o ~ n ",
"b ~ i _.5 | P.Q.c Q.R.~ ~ ~ ~ ~ ~ ~ ~ ~ ~ ~ R.Q.~ T #.U b.U ;.T 0 ~ ~ ~ ~ ~ ~ ~ ~ ~ ~ r S.r #.T I T #.U +.T._ h._ _ } 3 w 9 ~ n ",
"b ~ ~ 9 2 j G.5 f } | 2 _._.e 9 4.i { _.2 2 h 5 x 2 2 2 2 2 2 q 2 _.2 w c y e 9 k 2 2 [ / [ _.2 _.2 2 2 j } ( ( g 1 d.8 c ~ ~ n ",
"b ~ ~ ~ ~ ~ (.h h h h | / g 4 ] q.: ^ 5 h v h G./ g g g g g } h h 5 g | (.h B.] < n.v h h 5 g g g g g 5 h h h h 6 e ~ ~ ~ ~ ~ U.",
"V.W.X.X.X.X.Y.Z.Z.Z.Z.`. +.+++ +.+ +++@+#+Z.Z.`. +.+.+.+.+.+$+Z.%+&+*+++ +++++ + +=+Z.Z.%+&+.+.+.+.+.+&+%+Z.Z.Z.Z.Y.X.X.X.X.-+. "};
