/* XPM */
static char * regirock_xpm[] = {
"64 64 297 2",
"  	c #E9E0C0",
". 	c #E0D4A4",
"+ 	c #E0D4A2",
"@ 	c #DFD3A2",
"# 	c #DFD2A1",
"$ 	c #DFD1A0",
"% 	c #DECF9F",
"& 	c #DBC799",
"* 	c #DAC295",
"= 	c #DAC195",
"- 	c #DBC698",
"; 	c #DECD9D",
"> 	c #DED1A0",
", 	c #DBC496",
"' 	c #DBC497",
") 	c #DDCC9D",
"! 	c #DECC9D",
"~ 	c #DAC296",
"{ 	c #DCC99A",
"] 	c #DED09F",
"^ 	c #DDCB9B",
"/ 	c #DAC396",
"( 	c #E0D3A2",
"_ 	c #E3D8AD",
": 	c #D9C982",
"< 	c #D8C880",
"[ 	c #D8C77F",
"} 	c #D7C77F",
"| 	c #D6C37B",
"1 	c #D4BC74",
"2 	c #D3B971",
"3 	c #D3BA72",
"4 	c #D1B46D",
"5 	c #D1B169",
"6 	c #D1B36B",
"7 	c #D2B770",
"8 	c #D3BB73",
"9 	c #D3B870",
"0 	c #D2B56D",
"a 	c #D3B972",
"b 	c #D2B76F",
"c 	c #D4BA73",
"d 	c #D3B871",
"e 	c #D1B26A",
"f 	c #D2B870",
"g 	c #D1B16A",
"h 	c #D1B56D",
"i 	c #D4BA72",
"j 	c #D2B66E",
"k 	c #D2B46D",
"l 	c #D4BB74",
"m 	c #D9C984",
"n 	c #E3D8AE",
"o 	c #D8C67E",
"p 	c #D6C179",
"q 	c #D4BE76",
"r 	c #D1B26B",
"s 	c #D0B068",
"t 	c #D1B46C",
"u 	c #D4BB73",
"v 	c #D6C27A",
"w 	c #D5C078",
"x 	c #D6C37C",
"y 	c #D6C17A",
"z 	c #D5BF77",
"A 	c #D7C47C",
"B 	c #D5C079",
"C 	c #D7C57D",
"D 	c #D9CA85",
"E 	c #D2B66F",
"F 	c #D5BE77",
"G 	c #DAC883",
"H 	c #D9C983",
"I 	c #DACA83",
"J 	c #DACB85",
"K 	c #DACB84",
"L 	c #D7C57E",
"M 	c #D7C17C",
"N 	c #D7C37D",
"O 	c #D7C77E",
"P 	c #D7C67E",
"Q 	c #DACA84",
"R 	c #DBCB85",
"S 	c #D8C57D",
"T 	c #D7C37C",
"U 	c #D7C47D",
"V 	c #D6BE79",
"W 	c #D3B770",
"X 	c #D8C67F",
"Y 	c #DCCC88",
"Z 	c #E0D491",
"` 	c #DED18C",
" .	c #DFD28E",
"..	c #E0D490",
"+.	c #DFD38F",
"@.	c #DDCF8B",
"#.	c #DFD18F",
"$.	c #D9CA83",
"%.	c #D9CA82",
"&.	c #D9C981",
"*.	c #DACC85",
"=.	c #DFD38E",
"-.	c #DDD08C",
";.	c #DFD490",
">.	c #DDD18B",
",.	c #E0D591",
"'.	c #DED18D",
").	c #DFD28F",
"!.	c #DCCD87",
"~.	c #E0D28F",
"{.	c #DED08C",
"].	c #DDCF8A",
"^.	c #DFD18E",
"/.	c #D9C781",
"(.	c #D7C37B",
"_.	c #D9C883",
":.	c #DCCF89",
"<.	c #E1D592",
"[.	c #DCCE89",
"}.	c #DED28D",
"|.	c #DDD08A",
"1.	c #504828",
"2.	c #DCCE88",
"3.	c #DED28E",
"4.	c #E0D592",
"5.	c #E1D591",
"6.	c #DCCF8A",
"7.	c #908870",
"8.	c #E0D492",
"9.	c #DAC983",
"0.	c #D1B36C",
"a.	c #D7C47F",
"b.	c #DED18E",
"c.	c #DBCD87",
"d.	c #B88038",
"e.	c #E8E0D8",
"f.	c #C8C0A8",
"g.	c #DBCE88",
"h.	c #DFD28D",
"i.	c #E8A868",
"j.	c #E88038",
"k.	c #E0D38F",
"l.	c #DDD08B",
"m.	c #D7C580",
"n.	c #E3D7AE",
"o.	c #D5BE7A",
"p.	c #DDCE8A",
"q.	c #DFD390",
"r.	c #D8C981",
"s.	c #D8C881",
"t.	c #E0D390",
"u.	c #D4BC79",
"v.	c #E3D7AD",
"w.	c #D5BF7A",
"x.	c #D0B26A",
"y.	c #D9CB84",
"z.	c #E0D8A8",
"A.	c #D2B673",
"B.	c #D8C87F",
"C.	c #D5C179",
"D.	c #D4BA76",
"E.	c #885838",
"F.	c #D8C780",
"G.	c #D6C37E",
"H.	c #E2D5AB",
"I.	c #D4BC77",
"J.	c #E87038",
"K.	c #B04000",
"L.	c #D4BD75",
"M.	c #D7C682",
"N.	c #DFCCA6",
"O.	c #D2B571",
"P.	c #D6C27E",
"Q.	c #DEC9A3",
"R.	c #D1B26E",
"S.	c #D5BE76",
"T.	c #DACB83",
"U.	c #DBCD86",
"V.	c #D6C47C",
"W.	c #D7C681",
"X.	c #DBCC86",
"Y.	c #D6C27B",
"Z.	c #D0B16A",
"`.	c #D6BF7C",
" +	c #181818",
".+	c #DCCD88",
"++	c #D5BF7C",
"@+	c #D8C680",
"#+	c #D7C480",
"$+	c #D2B56E",
"%+	c #D8C681",
"&+	c #DFCCA5",
"*+	c #D1B470",
"=+	c #D6C07C",
"-+	c #E1D4AB",
";+	c #D4BA75",
">+	c #B0A890",
",+	c #D2B46C",
"'+	c #D5BE7B",
")+	c #D4BE79",
"!+	c #D4BC75",
"~+	c #D5BF7B",
"{+	c #D4BD79",
"]+	c #D4BB77",
"^+	c #D8C982",
"/+	c #D1B471",
"(+	c #D1B26F",
"_+	c #D7C37E",
":+	c #D5BE79",
"<+	c #E1D693",
"[+	c #D0B169",
"}+	c #D7C27B",
"|+	c #DACA82",
"1+	c #DACC86",
"2+	c #E1D692",
"3+	c #DCCE87",
"4+	c #DBCC85",
"5+	c #D6C27D",
"6+	c #D6C17C",
"7+	c #E1D1A9",
"8+	c #D3B974",
"9+	c #DECAA4",
"0+	c #D1B36F",
"a+	c #D6C57D",
"b+	c #D4BD76",
"c+	c #D8C782",
"d+	c #D9C681",
"e+	c #D9C881",
"f+	c #DFD491",
"g+	c #D6C079",
"h+	c #D6C17E",
"i+	c #D9CA84",
"j+	c #E2D694",
"k+	c #DEC9A4",
"l+	c #E0CFA8",
"m+	c #D2B772",
"n+	c #E2D7AD",
"o+	c #D4BC78",
"p+	c #D3B76F",
"q+	c #D3B774",
"r+	c #D1B270",
"s+	c #D8C581",
"t+	c #DACC84",
"u+	c #D9C780",
"v+	c #D9C782",
"w+	c #D8C580",
"x+	c #D1B66E",
"y+	c #D6C17D",
"z+	c #D1B370",
"A+	c #D7C37F",
"B+	c #D3B975",
"C+	c #D8C47F",
"D+	c #E3D5AC",
"E+	c #D5BF78",
"F+	c #DFCEA7",
"G+	c #D2B671",
"H+	c #D3B873",
"I+	c #DED08B",
"J+	c #DBCC87",
"K+	c #D8C883",
"L+	c #E1D593",
"M+	c #D9C882",
"N+	c #D7C07A",
"O+	c #DBC884",
"P+	c #DBC984",
"Q+	c #DBC985",
"R+	c #DAC984",
"S+	c #DBC986",
"T+	c #DACA85",
"U+	c #D4B972",
"V+	c #D5C17A",
"W+	c #D6C27C",
"X+	c #D2B66D",
"Y+	c #E4DAB2",
"Z+	c #DACB8A",
"`+	c #D9CA86",
" @	c #D9CA87",
".@	c #D8C885",
"+@	c #D7C481",
"@@	c #D6C27F",
"#@	c #D6C07D",
"$@	c #D4B976",
"%@	c #D2B371",
"&@	c #D3B573",
"*@	c #D3B675",
"=@	c #D3B775",
"-@	c #D4B876",
";@	c #D5BD7A",
">@	c #D4BA77",
",@	c #D3B674",
"'@	c #D6BE7B",
")@	c #D4B875",
"!@	c #D4B775",
"~@	c #D2B370",
"{@	c #D2B471",
"]@	c #D6C481",
"^@	c #DACB89",
"  . + + + + @ # $ $ $ % & * = = = = - ; $ > ; - , ' , ' , * ' ) > ! ' = = = = ~ { ] $ ] ^ , ' , , ' / * & % $ $ > # ( + + + + . ",
"_ : < < [ } | 1 2 2 3 2 4 5 5 5 5 5 6 7 3 8 9 0 a 3 b c d e 6 f 8 f 6 5 5 5 5 g h 2 i 3 b j 8 9 7 1 0 g k 3 3 3 3 l | } [ < < m ",
"n m < o p q 3 r s s t a l l l u u u 2 t b u u 1 v | w x y 1 u 1 1 1 l u u u l u b t 2 l l z A p B C q u l 2 t j 7 t 3 q y [ < D ",
"n m o B b 0 b b E j F G H I J : K K L M N o O P [ [ [ [ [ P P [ I J : K Q : R : N M L } P } [ [ } < } P } S M T U V c h W p o D ",
"n m v 9 h 1 T X L L Y Z `  ...` ..+.@.#.@.Q : $.%.: $.: $.$.&.*.=.Z -.;.+.>.,.'.-.).!.: %.K : $.I &.I %.%.!.~.{.].^./.2 e 9 (.D ",
"n _.z j u U !.=.:.-.Z ..,.Z ..<.....<...Z ` [.}.|.:.1.1.1.1.2.3.Z ;.4...Z 5...Z Z ;...].6.=.7.7.1.1.1.|.[.Z ..Z 8.'.9.1 5 0.p D ",
"n a.3 j y !.+.4...Z b.c.'.|.d.d.d.6.'.c.-.Z ..4.1.1.e.e.7.f.1.1.@.g.}.[.].h.c.1.-.c.+.Z Z 7.i.i.d.j.j.1...k.c.l.'.%.[ p f 6 u m.",
"n.o.6 6 F p.+.].q.b.K r.d.d.i.i.d.1.: r.%.l.1.1.e.e.e.e.e.7.f.f.1.s.: r.r.%.1.j.1.s.*.+.7.i.i.d.j.j.j.1.t.K r.&.: < < [ w 6 e u.",
"v.w.6 x.b U K $.*.y.< d.i.i.i.i.d.j.1.1.< 1.z.z.z.z.z.z.z.7.f.7.f.1.< < < 1.j.j.j.1.&.J 7.i.i.d.j.j.j.j.1.s.< < < < < < y 6 s A.",
"n a.3 0 8 | [ < B.< < d.i.i.i.i.d.j.j.j.1.z.z.z.z.z.z.z.z.z.7.f.f.1.< < 1.d.j.j.j.1.< 7.i.i.i.d.j.j.j.j.1.< < < < < < < C.6 5 D.",
"n a.8 j p < < < < < < d.i.i.i.i.j.d.j.1.e.e.e.z.z.z.z.z.z.z.7.f.f.f.1.1.d.d.d.j.E.1.< 7.i.i.d.j.j.j.j.j.j.1.< < < < F.| u 6 f G.",
"H.I.e t y < < < < < < d.i.i.i.j.j.d.j.1.J.K.z.e.e.e.J.K.z.z.7.f.f.f.1.d.d.d.d.E.d.1.1.i.i.i.d.j.j.j.j.j.j.1.< < < < [ L.e 6 L.M.",
"N.O.5 j v < < < < < < d.i.i.i.j.j.d.1.e.K.1.z.e.e.e.K.1.z.e.7.f.f.f.f.1.d.d.d.d.d.1.i.i.i.i.d.j.j.j.j.j.j.j.1.< < < [ L.e x.b P.",
"Q.R.0 S.C s.&.s.r.r.< T.7.i.j.E.E.1.e.e.z.z.z.e.e.e.z.z.z.e.e.f.f.f.7.1.E.E.E.d.1.i.i.i.i.d.j.j.j.j.j.j.j.j.1.< < < [ v 3 t i m.",
"Q.R.2 C s.c.2.K 2.U.*.l.1.E.E.j.d.1.e.J.K.z.J.K.z.e.e.e.e.e.e.f.7.7.z.z.1.1.E.1.i.i.i.i.i.d.j.j.j.j.j.i.i.i.1.< < < < V.u t 1 W.",
"Q.R.2 L X...,.'.4.+. .<.{.1.j.d.d.e.e.K.1.z.K.1.z.e.J.K.z.e.e.7.z.z.z.z.z.z.1.1.7.7.7.7.7.d.i.i.i.i.i.i.i.E.d.1.J : Q Y.j Z.6 `.",
"Q.R.9 /.t.+.).<. ...<.l.Q 1.d.d.1.e.e.z.z.z.z.z.z.e.K.1.z.e.e.e.f.f.z.z.z.z.1.j.j.j.j.j.j.j.7.i.i.i.i.i.E.d.d. +;.[....+q r r ++",
"Q.R.d @+l..+U.l.X.2.].K < < 1.1.e.e.J.K.z.e.e.e.e.e.z.z.z.e.e.e.e.e.f.f.z.z.1.j.j.j.j.j.j.j.j.E.E.E.E.E.E.d.d. +Z 4....+y 0 3 #+",
"Q.R.2 C < < < < < < < < < 7.f.f.e.e.K.1.z.e.e.e.e.e.J.K.z.e.e.e.e.e.e.e.7.7.1.j.j.j.j.j.j.j.j.j.E.j.d.j.E.d.d. +[.Z c.< p $+1 %+",
"&+*+2 C < < < < < < < < 7.f.f.f.e.e.z.z.z.e.e.e.e.e.K.1.z.e.e.e.e.e.e.z.7.f.1.j.j.j.j.j.j.j.j.j.E.d.j.d.d.E.d. +r.I &.[ p 0.6 =+",
"-+;+2 x < < < < < < < 7.z.z.z.e.e.e.e.e.e.e.e.e.e.e.z.z.z.e.e.e.z.e.z.e.>+f.1.j.j.j.j.j.j.j.j.j.d.j.d.j.d.d. +< < < < [ p ,+5 '+",
"n )+j 1 C < < < < < 7.e.e.e.e.e.e.e.e.e.e.e.e.e.e.e.e.e.e.e.e.z.e.z.e.z.f.7.f.1.j.j.j.j.j.j.j.E.j.d.j.d.d.d. +< < < < < C !+0 ~+",
"v.{+g t v < < < < < 7.e.e.e.e.e.e.e.e.e.e.e.e.e.e.e.e.e.e.e.z.e.z.e.z.e.f.7.f.1.j.j.j.j.j.j.j.E.d.j.d.d.d. +< < < < < < < V.f ]+",
"n.~+t t y < : K : $.7.e.e.e.e.e.e.e.e.e.e.e.e.e.e.e.e.e.e.e.e.z.e.z.z.z.f.>+f.>+1.j.j.j.j.j.j.E.j.d.d.d.d. +^+< < < < < < C f /+",
"n m.u j y s.:...].'.+.7.e.e.e.e.e.e.e.e.e.e.e.e.e.e.e.e.e.e.z.z.z.z.z.z.f.f.7.7.7.1.i.i.i.i.E.d.E.d.d.d. +Z c.&.r.: r.&.&.C b (+",
"n _+2 j v 2...,.Z Z Z 1.e.e.e.e.e.e.e.e.e.e.e.e.e.e.z.z.z.z.z.z.z.z.z.f.f.f.f.>+>+1.i.i.i.E.d.d.d.E.d. +Z ,.q.[.U.` X.:.l.X 7 (+",
"v.:+e r S.p. .[.+.` ].Z 1.f.f.z.e.e.e.e.e.z.z.z.z.z.z.z.z.z.z.z.z.f.f.f.f.f.f.>+>+>+1.1.E.d.d.d.d.d.1.f.1.g.Z ..+.<+ .Z q.F.7 (+",
"v.w.0.[+j }+: %.I |+&.c.1.e.e.f.f.f.z.z.z.z.z.z.z.z.z.z.z.z.z.f.f.f.f.>+>+7.f.>+>+>+1.f.1.1.d.d.d.1.f.f.f.1.1+q.,.|.2+).K L b (+",
"n #+u h 1 V.F.< < < < : c.1.e.e.e.e.f.f.f.f.z.z.z.z.z.z.z.f.f.f.>+>+>+d.d.7.f.f.f.1.f.f.f.z.1.1.1.f.f.f.f.>+ +X.c.I 3+4+< V.b (+",
"n _+a t 3 | [ < < < < < < < 1.e.e.e.z.z.z.z.f.f.f.f.z.z.f.>+>+>+d.d.d.d.d.7.f.f.f.1.f.f.f.z.z.7.f.f.z.z.z.>+ +< < < < < C L.t (+",
"n 5+b [+e S.P < < < < < < < 1.1.e.z.z.z.z.z.z.z.z.z.>+>+>+j.j.j.j.d.d.d.d.7.f.f.f.1.f.f.z.z.z.7.7.z.z.z.7.>+ +< < < < < y t [+A.",
"n %+L.6 6 S.P < < < < < < 1.e.e.1.z.z.z.z.z.z.z.z.z.z.>+j.j.j.j.j.j.j.d.d.>+f.f.f.f.1.f.z.z.z.7.f.f.7.7.>+ +< < < < < [ z 6 6 o.",
"v.6+b t 1 V.[ < < < < < < 1.e.e.e.1.z.z.z.z.z.z.z.z.z.>+j.j.j.j.j.j.j.j.d.7.7.7.7.f. +1.z.z.7.f.f.f.f.7.>+ +< < < < [ w E 6 1 %+",
"7+8+[+t C.[ < < < < < < < 1.e.e.e.e.1.z.z.z.z.z.z.z.z.>+j.j.j.j.j.j.j.j.7.f.f.f.f.7. +< 1.1.1.f.f.f.f.1. +< < < < < [ 1 [+x.3 m.",
"9+0+e 9 | < < < < < < &.X.*.1.e.e.7.f.1.z.z.z.z.z.z.z.>+>+j.j.j.j.j.j.j.d.f.f.f.f.f. +T.< 1.f.1.1.1.1.>+ +< < < < < [ z h x.E P.",
"Q.R.b v [ : %.&.: : s.X.Z +.1.e.7.f.f.1.e.e.z.z.z.z.>+z.z.>+j.j.j.j.j.d.f.f.f.f.f.f.1.` 1.f.f.7.f.z.7.>+>+ +< < < < < a+L.h b+c+",
"Q.R.2 C : ` }..+ .l.[...;.Z <.1.1.f.f.f.1.e.e.e.e.>+z.z.z.z.>+>+j.j.j.7.f.f.f.f.f.7.q.Z 1.f.7.f.f.z.z.7.>+ +< s.s.< < C.b x.b P.",
"Q.R.2 F.l.,.<...4.Z Z ..2.].1.f.f.1.1.1.1.f.e.e.>+z.z.z.z.z.z.z.>+7.7.7.f.f.f.f.7.}.c.-.1.f.7.f.f.f.z.7. +'.*.2.].K ].d+2 [+g ~+",
"Q.R.9 e+f+'.{.Z l.3...c.s.&.1.f.f.f.f.f.7.1.>+>+>+z.z.z.z.z.z.z.>+f.z.f.7.f.f.7.1.: s.$.l.1.7.f.f.f.f.1.1.<+}...<.` <.].g+t h h+",
"Q.R.2 P J I $.J $.i+K &.1.1.1.1.f.f.f.7.>+1.j.j.>+z.z.z.z.z.z.z.>+z.f.z.f.7.7.d.1.< < < 1.f.1.1.1.1.1.f.f.1.2++.3.j+l.I p j b+c+",
"k+R.2 C < < < < < < 1.1.z.f.f.f.1.f.7.>+>+1.j.j.j.>+z.z.z.z.z.>+z.f.z.f.f.f.7.d.d.1.< < 1.f.f.f.z.7.f.f.f.>+1.c.*.6.K < p h 9 G.",
"l+m+2 C < < < < 1.1.e.e.e.z.f.f.f.1.>+1.1.j.j.j.j.j.>+z.z.z.>+z.f.z.f.f.f.f.f.7.7. +< 1.f.f.z.z.z.7.>+f.>+f.1.r.< r.< [ p 6 e ~+",
"n+o+9 p [ < < 1.>+>+e.e.e.e.z.f.f.7.1.< 1.j.j.j.j.j.7.7.7.7.>+f.z.f.z.f.f.f.f.7.>+ +< 1.z.z.z.z.z.7.f.>+f.>+1.< < < < < | b r ~+",
"v.)+6 p+| < < 1.z.z.>+>+e.e.e.e.e.7.>+1.1.j.j.j.j.7.f.f.f.f.7.f.f.f.f.f.1.1.1.1.>+ +< 1.z.z.z.z.7.7.>+f.>+ +< < < < < < [ p b o.",
"v.{+g ,+v < < 1.z.z.z.z.>+z.e.e.7.>+>+>+1.1.d.d.d.7.f.f.f.f.f.7.f.f.1.1.f.f.z.f.1.< < 1.z.z.7.f.f.f.7.>+f. +< < < < < < < U f q+",
"n P.7 0 y < *.1.z.z.z.z.z.>+7.7.7.>+>+1.z.z.1.d.7.f.f.f.f.f.f.7.f.1.f.f.f.z.f.z.1.< < < 1.7.f.f.f.f.f. + +6.I < < B.< < < C b r+",
"n s+1 b y I ` 2+1.z.z.z.z.>+f.f.7.>+>+1.z.z.z.1.1.f.f.f.f.f.f.7.1.f.f.f.z.f.z.f.z.1.%.1.e.1.1.f.f.f.1.f.f. +l.I : *.%.K t+P b (+",
"n =+h k y {.Z  .4.1.z.z.>+f.f.f.f.7. +1.e.z.z.z.z.1.>+>+>+>+>+1.f.f.f.f.f.f.f.f.f.1.1.e.e.e.e.1.1.1.f.f.f. +2+'.6.4.].}.t.u+7 (+",
"v.{+g x.2 v+.+1+6.1.z.z.>+f.f.f. + +4.1.e.e.e.z.z.f.1.>+>+>+1.f.f.f.f.f.f.f.f.f.f.1.e.e.e.e.e.7.f.f.f.f.7.>+ +,.,.q.<.Z @.X b (+",
"n 5+b 6 d Y.< r.&.r. + + + + + +6.l.3.[.1.e.e.z.7.>+>+1.1.1.1.f.f.f.f.z.z.e.e.e.7.1.z.z.e.e.e.7.f.f.f.7.>+>+ +{. .c. .l.: L b (+",
"n w+1 x+!+U B.< < < < < $.%.: $.: : $.: $.1.7.7.>+>+>+>+>+1.1.7.e.e.e.e.e.e.e.7.>+ +z.z.z.z.7.f.7.7.7.>+>+>+ +%.$.r.$.: [ v j (+",
"n y+E e $+w [ < < < < < < < < < < < < < < 1.f.7.>+>+>+7.1.< 1.z.7.e.e.e.e.e.7.>+>+ +1.z.z.z.7.f.z.f.z.7.>+>+ +< < < < [ | f e z+",
"n A+3 e [+L.P < < < < < < < < < < < < < 1.z.f.f.7.7.7.f.f. +1.z.z.7.7.7.7.7.>+>+>+ +1.z.z.z.7.z.f.z.f.7.>+>+ +< < < < [ p 6 s B+",
"n C+3 t E p [ < < < < < < < < < < < < < 1.z.z.z.z.7.f.f.f. +< 1.z.7.f.f.f.f.7.>+ +< < 1.z.7.z.f.z.f.z.f.7.>+ +< < < < < p t b P.",
"D+:+6 t E+P < < < < < < < < < < < < < < < 1.z.z.z.7.f. + +< < 1.7.f.f.f.f.f.7. +< < < 1.z.7.f.z.f.z.f.z.7. +< < < < < P F 0 L.c+",
"F+G+s t v < < < < < < < s.s.s.&.s.s.&.s.s.s. + + + + +< < < < < 1.f.f.f.f.f.7.1.s.< &.&.1.f.z.f.z.f.z.f. +< < &.&.< < C.j e j P.",
"7+H+s t v < < < < < B.%.I+:.c.{..+2.l.J+].l.%.B.< < < < < < < < 1.7.f.f.f.7.f.f. +X.` c.< 1.f.z.f.z.f. +< < : ].{.J -.9.3 x.5 '+",
"v.6+j t 1 A [ : .+X.K ].4...+.<.+.t.5.+.Z ,.].K X.c.K !.4+K 2.1.f.7.7.7.7.7.f.f.f. +<.+.c.T. + + + + +U.!.$.].Z 5. .Z :.C.t E P.",
"n c+q t t z < .+,.+.'.Z '.+.Z ` ..+.'.Z 3. .,.` +...` Z  .` ,.1.7.z.z.z.f.f.7.7.f. +` t.t.l.4.}.'.2+l.+.Z |.4.+.'.<+l.: z j z K+",
"n m p t 5 1 R ..+.Z <.-.K 1+c.K c.1+K c.J J '.4...;.<.q.Z <.+.1.z.z.z.z.z.7.f.f. +g.K !.+.L+).Z 4.=.<...+.<+'.J Q .+M+z j j v D ",
"n m A 1 t j N+O+9.P+Q+: < s.s.< s.< < s.s.s.H Q+Q !.{..+:.l.c.l.1.z.z.z.7.f.f.f. +r.< &.R+S+T+].l.X.` [.c.@.N L.b+L.1 j t !+U D ",
"n m [ U 1 2 W W L.u U+F V+V+| P U U P | C.C.S.U+l v T Y.Y.| v Y.Y. + + + + + + +C y C.w 1 d z W+(.Y.T Y.v g+E e g 6 b d 1 U [ D ",
"n H < < C A z b j X+0 b j h 3 w l !+E+a b d b t t h t 4 t t 0 b 9 b $+j !+w 8 F S.E 7 f j t ,+4 4 4 t h j b t 6 6 j z A C < < D ",
"Y+Z+`+ @ @ @.@+@@@@@@@#@$@%@&@$@*@=@-@=@;@@@@@h+>@%@%@%@%@%@,@'+@@'@&@%@=@$@,@)@)@!@#@@@@@#@,@~@%@%@%@{@$@h+@@@@@@]@.@ @ @ @ @^@"};
