/* XPM */
static char * trapinch_xpm[] = {
"64 64 304 2",
"  	c #E3D8AD",
". 	c #DED19B",
"+ 	c #DDCF99",
"@ 	c #DCCD97",
"# 	c #DCCC97",
"$ 	c #DCCA95",
"% 	c #D8C18E",
"& 	c #D7BE8B",
"* 	c #D7BD8B",
"= 	c #D9C390",
"- 	c #DBC894",
"; 	c #D8C08D",
"> 	c #D8BF8D",
", 	c #D9C18E",
"' 	c #DBC995",
") 	c #DBC793",
"! 	c #D7BF8C",
"~ 	c #DAC592",
"{ 	c #DCCB96",
"] 	c #DAC692",
"^ 	c #DCCE98",
"/ 	c #DED09A",
"( 	c #DED29B",
"_ 	c #DFD29D",
": 	c #DDD098",
"< 	c #D8C880",
"[ 	c #D8C67E",
"} 	c #D7C67E",
"| 	c #D5C078",
"1 	c #D3B870",
"2 	c #D3B76F",
"3 	c #D2B770",
"4 	c #D1B36C",
"5 	c #D1B26A",
"6 	c #D1B46C",
"7 	c #D2B76F",
"8 	c #D3B971",
"9 	c #D3BA72",
"0 	c #D2B56E",
"a 	c #D4BC74",
"b 	c #D4BC75",
"c 	c #D2B870",
"d 	c #D1B36B",
"e 	c #D1B269",
"f 	c #D1B56D",
"g 	c #D2B66E",
"h 	c #D4BD75",
"i 	c #D2B56D",
"j 	c #D3B871",
"k 	c #D2B971",
"l 	c #D6C37B",
"m 	c #D7C77F",
"n 	c #D8C77F",
"o 	c #D9C983",
"p 	c #DED19A",
"q 	c #D8C982",
"r 	c #D7C57D",
"s 	c #D5BE76",
"t 	c #D0B169",
"u 	c #D0B068",
"v 	c #D4BD76",
"w 	c #D5BD76",
"x 	c #D5BD75",
"y 	c #D3B972",
"z 	c #D5BF77",
"A 	c #D7C47C",
"B 	c #D6C27A",
"C 	c #D7C47D",
"D 	c #D6C17A",
"E 	c #D4BE76",
"F 	c #D3BB73",
"G 	c #D5C179",
"H 	c #D4BA73",
"I 	c #D9CA85",
"J 	c #D1B46D",
"K 	c #D2B871",
"L 	c #D7C27D",
"M 	c #DBCC87",
"N 	c #D9CA83",
"O 	c #DBCC86",
"P 	c #DCCE88",
"Q 	c #DACB84",
"R 	c #D8C680",
"S 	c #D8C47F",
"T 	c #D8C57F",
"U 	c #D8C87F",
"V 	c #D7C77E",
"W 	c #DACA83",
"X 	c #DACB85",
"Y 	c #DCCD87",
"Z 	c #DAC983",
"` 	c #D8C67F",
" .	c #D9C47F",
"..	c #D8C17D",
"+.	c #D4BB75",
"@.	c #D2B66F",
"#.	c #D8C881",
"$.	c #D9C881",
"%.	c #D8C882",
"&.	c #DED08C",
"*.	c #E1D592",
"=.	c #DED18C",
"-.	c #E0D491",
";.	c #E0D490",
">.	c #DFD28E",
",.	c #DED18D",
"'.	c #E0D390",
").	c #DDCF8B",
"!.	c #DACA84",
"~.	c #D9CA82",
"{.	c #DBCD87",
"].	c #E0D591",
"^.	c #DFD38F",
"/.	c #DED28D",
"(.	c #E0D592",
"_.	c #DFD28F",
":.	c #DCCD88",
"<.	c #D9C982",
"[.	c #DDCF89",
"}.	c #DFD18D",
"|.	c #DDD08C",
"1.	c #DFD18E",
"2.	c #D9C781",
"3.	c #D7C780",
"4.	c #D9C780",
"5.	c #DDD08B",
"6.	c #DFD48F",
"7.	c #DDCF8A",
"8.	c #DCCF89",
"9.	c #DED28E",
"0.	c #DFD390",
"a.	c #DFD490",
"b.	c #DCCE89",
"c.	c #E0D492",
"d.	c #D6C079",
"e.	c #D9C984",
"f.	c #DDD099",
"g.	c #D5C17A",
"h.	c #D7C57E",
"i.	c #DED08B",
"j.	c #DACC85",
"k.	c #DACC86",
"l.	c #DDD08A",
"m.	c #DBCD88",
"n.	c #DBCE88",
"o.	c #DBCD86",
"p.	c #DFD38E",
"q.	c #DCCF8A",
"r.	c #D6C179",
"s.	c #D7C480",
"t.	c #DDCE98",
"u.	c #D3BA73",
"v.	c #D8C981",
"w.	c #D9C981",
"x.	c #DDD18C",
"y.	c #D4BB78",
"z.	c #D3BB75",
"A.	c #D2B673",
"B.	c #DED099",
"C.	c #D6C27C",
"D.	c #D4BB77",
"E.	c #D6C27B",
"F.	c #D7C47F",
"G.	c #DBCA95",
"H.	c #D1B169",
"I.	c #D7C682",
"J.	c #D6C27E",
"K.	c #D7BD8A",
"L.	c #D0B26B",
"M.	c #D8C980",
"N.	c #DBCE87",
"O.	c #D4BB73",
"P.	c #D7C580",
"Q.	c #805010",
"R.	c #E0D38F",
"S.	c #DBCC85",
"T.	c #D4BA72",
"U.	c #E1D693",
"V.	c #E1D692",
"W.	c #E0E000",
"X.	c #101010",
"Y.	c #E1D593",
"Z.	c #D7C37C",
"`.	c #D6BF7C",
" +	c #D4BB74",
".+	c #DBCB85",
"++	c #E1D591",
"@+	c #D9CA84",
"#+	c #D9CB83",
"$+	c #E0D48F",
"%+	c #D1B26B",
"&+	c #E8E8D8",
"*+	c #D0B800",
"=+	c #D8C780",
"-+	c #D7C681",
";+	c #D8C18D",
">+	c #A88800",
",+	c #D5C079",
"'+	c #D6C07C",
")+	c #D2B46D",
"!+	c #D1B16A",
"~+	c #D5BE7B",
"{+	c #D2BA73",
"]+	c #D5BF7B",
"^+	c #D2B973",
"/+	c #D6C47C",
"(+	c #DACB83",
"_+	c #D9CB84",
":+	c #D6C47D",
"<+	c #D1B471",
"[+	c #D6C37D",
"}+	c #DED18B",
"|+	c #D1B26F",
"1+	c #DECF99",
"2+	c #D5C07A",
"3+	c #D8C57E",
"4+	c #888888",
"5+	c #D0B26A",
"6+	c #505050",
"7+	c #C8C8B8",
"8+	c #D4BE77",
"9+	c #F8F8F8",
"0+	c #D7C67F",
"a+	c #D5BE7A",
"b+	c #D5BF78",
"c+	c #D8C681",
"d+	c #DBC792",
"e+	c #D1B66F",
"f+	c #B0B0A0",
"g+	c #D5BE77",
"h+	c #D6C57D",
"i+	c #D8C782",
"j+	c #D9C680",
"k+	c #D6C17E",
"l+	c #E2D694",
"m+	c #D6C37F",
"n+	c #D9C590",
"o+	c #D1B56E",
"p+	c #D5BF7C",
"q+	c #D2B972",
"r+	c #D3B774",
"s+	c #D4BF78",
"t+	c #D9C880",
"u+	c #DCCE87",
"v+	c #D1B270",
"w+	c #DDCE99",
"x+	c #D4BD77",
"y+	c #E1D694",
"z+	c #DBCB87",
"A+	c #D9CA81",
"B+	c #D4BE78",
"C+	c #D3B874",
"D+	c #D6C37C",
"E+	c #D3BB74",
"F+	c #DAC490",
"G+	c #D7C37E",
"H+	c #DAC591",
"I+	c #D9C882",
"J+	c #DDCD97",
"K+	c #DED38E",
"L+	c #DFD28D",
"M+	c #E1D491",
"N+	c #D9C580",
"O+	c #DCCB88",
"P+	c #DCCB87",
"Q+	c #DACA85",
"R+	c #DCCC88",
"S+	c #DBCB86",
"T+	c #DED08D",
"U+	c #D4B972",
"V+	c #D5BB75",
"W+	c #D4BA74",
"X+	c #D7C47E",
"Y+	c #D7C17B",
"Z+	c #D3B770",
"`+	c #D2B66D",
" @	c #D8C580",
".@	c #D6C17C",
"+@	c #D5C07B",
"@@	c #D6C07B",
"#@	c #D5BD78",
"$@	c #D2B571",
"%@	c #D1B26E",
"&@	c #D2B671",
"*@	c #D4B974",
"=@	c #D3B873",
"-@	c #D4BC77",
";@	c #D5BE79",
">@	c #D2B772",
",@	c #D4BD78",
"'@	c #D4BB76",
")@	c #D2B36F",
"!@	c #D1B36F",
"~@	c #D3B974",
"{@	c #D3B773",
"]@	c #D3B772",
"^@	c #D5C07C",
"/@	c #D5BC78",
"(@	c #D2B570",
"_@	c #D1B26D",
":@	c #D1B36E",
"<@	c #D5BF7A",
"[@	c #D6C27D",
"}@	c #DACA87",
"  . . . . . + @ # @ @ $ % & * * * * = $ @ # - % % ; > , > * % ' # ) > * * * * ! ~ # @ { ] > % > ; % ! & = { @ # @ ^ / ( . . . _ ",
": < < < [ } | 1 2 2 1 3 4 5 5 5 5 5 6 7 8 9 7 0 a 9 1 b c 5 6 c 9 7 d e 5 5 5 5 f c 8 8 g 7 h 8 8 h g 5 i j 1 j k 9 l m n < < o ",
"p q < r s a 7 t u u g b v w w h x h 8 f y h h z A l B C D h h h E v x x w x w b 7 f F v v G r B B r | h v H f 3 8 6 8 a | n < I ",
"p q r h J 7 8 K K k L M N O O N P Q R S T n m m < n n U n m V < O O W M X Q Y Z S S ` m m n n n n < m m n [  .T T ..+.i @.| } I ",
"p #.z i g z ` $.} %.&.*.=.-.;.=.*.>.,.'.).!.N X ~.N Q ~.Q Q ~.{.;.;.,.].^./.(.,.,._.:.N N Q <.Q Q <.Q N N [.'.}.|.1.2.8 5 7 l I ",
"p 3.a i z 4.5.6.P _.-.^.*.;.'.*.^.-.-.^.].5.7.^.7.=.>.8.9.=.8.0.a.0.(.0.-.].^.].-.^.;.7.5.^.b.,./.P ^.5.7.(.^.-.c.5.<.a 5 6 d.e.",
"f.g.7 7 h.i.-.].-.-.).j.,.Y :.&.k.7.l.k.=.-.-.].-.-.-.-.].-.-.0.m.n.5.{.7.5.o.5.b.{.p.].-.-.-.-.].-.].].-.>.O q.5.<.n r.8 d 9 s.",
"t.u.t J D &.,.P -.q.<.v.<.w.$.v.#.v.v.v.~.=.>.8.^.x.7.^.).i.^.{.#.#.v.v.v.w.$.w.v.#.j.>./.b.^.5.5.0.b.>._.N v.v.v.< < n | d 5 y.",
"t.z.5 d 9 R W ~.j.~.< < < < < < < < < < < W Q ~.Q N ~.Q N W Q <.< < < < < < < < < < w.Q Q <.Q N N X <.Q Q < < < < < < < r.d u A.",
"B.C.1 i E r < < U < < < < < < < < < < < < U < < U < < U < < < < < < < < < < < < < < < < U < U < < U < < U < < < < < < m | d 5 D.",
"B.E.c 7 r < < < < < < < < < < < < < < < < < < < < < < < < < < < < < < < < < < < < < < < < < < < < < < < < < < < < < n B 9 d 8 F.",
"G.K t 7 C < < < < < < < < < < < < < < < < < < < < < < < < < < < < < < < < < < < < < < < < < < < < < < < < < < < < < n a H.d b I.",
"% 4 H.8 r < < < < < < w.Q <.<.Q w.N N <.N ~.< < < < < < < < < < < <.N <.N N <.W N <.N w.< < < < < < < < < < < < < < n h d 5 7 J.",
"K.L.2 r.n w.w.#.w.v.M.O p.8.q.>.N.x.=.P 9.l.<.< w.v.v.w.w.w.w.#.<.b./.b.5.=.P ,.5.b.9.P w.M.w.v.v.w.#.w.w.< < < < < n B 9 6 O.P.",
"* L.a n <.[.P X 5.O o.>.*.;.-.*.a.-.].;.*.-.7.X b.{.O 7.O Y b.Q.Q.0.(.;.].(.'.(.].;.*.R.:.S.7.o.O 7.X P b.v.< < < < < l T.6 O.P.",
"* L.a $.b.*.-.,.U.>.^.*.8.^._.7.-.x.|.-.7.>.-.9.(.;.^.V.^.Q.Q.W.Q.X.).0.,.5.-.|.9.a.7.0.-.9.Y.^.^.U.>.-.].P ~.Q S.<.X Z.g t 5 `.",
"* L. +.+++9.^.*.=.++;.P o j.X N k.@+#+O N Q ,.*.9.$+].9.Q.W.W.Q.W.X.N j.Q W S.W Q j.<.M ^.(./.;.-.,.*.^.>.(.5.p.a.q.;.:.E %+d `.",
"* L. +o 5.O {.l.Q [.b.<.< U < < U < < U < U S.7.Q.X.X.Q.W.W.Q.&+*+X.< < < < < < < < < #.{.7.j.b.b.X 7.{.O ^.].-.-.*.^.{.D i H P.",
"* L.a n < < < < < < < < < < < < < < < < < Q.X.X.W.W.W.*+*+*+Q.&+*+X.< < < < < < < < < < < < < < < < < < < j.>.).b.'.o.=+G 0 a -+",
";+4 a n < < < < < < < < < < < < Q.Q.X.X.X.W.W.>+W.W.W.W.W.W.W.*+*+Q.< < < < < < < < < < < < < < < < < < < #.<.<.v.~.w.n ,+4 d '+",
"G.K O.r < < < < < < < < < < < Q.W.W.Q.*+W.W.W.>+W.>+>+>+>+>+W.W.*+>+X.< < < < < < < < < < < < < < < < < < < < < < < < n r.)+!+~+",
"t.{+g E } < < < < < < < < < < Q.Q.*+*+W.W.W.>+>+>+*+*+W.>+W.>+>+*+*+Q.< < < < < < < < < < < < < < < < < < < < < < < < < r h i ]+",
"t.^+t 7 r < < < < < < < < < < < >+Q.*+W.>+>+W.W.W.W.W.W.>+W.W.*+>+*+*+X.< < < < < < < < < < < < < < < < < < < < < < < < < /+c D.",
"t.b d 7 C < N Q w.Q (+#.< < < < >+Q.*+>+W.>+W.W.W.W.W.W.>+W.W.*+*+*+>+Q.< < < < < < < < N Q <._+!.<.Q W o X q < < < < < < :+7 <+",
"B.[+8 7 r ~.=.-.P ^.9.Q #.w.w.v.<.>+>+>+W.>+W.W.W.W.>+>+>+>+X.X.X.*+*+>+X.v.<.v.w.<.< N &.'.q.p.^.8.;.}+l.-.{.w.v.<.v.w.<.r 7 |+",
"1+2+7 7 3+i.-.].-.-.-.>.S.l.7.o.=.P X.>+W.W.>+*+>+>+W.W.W.X.4+X.X.X.*+*+X.m.|.Y 8.5.O 5.-.-.-.-.].-.-.-.-.-.0.b.{.,.O [.5.` 7 |+",
"t.{+t J D }.,.P -.7.5.(.9.(.]._.U.a.X.W.W.>+W.W.W.>+W.W.W.X.&+&+X.X.*+*+Q.^.*.^.-.V.^.-.,.8.0.5.).;.b./.>.n.-.;.^.U._.-.^.=+7 |+",
"t.z.5 5+1 3+N q W <.<.b.U.6+6+Y.5.;.X.W.X.X.W.W.W.>+W.W.W.X.&+&+X.X.7+6+*+X.&.-.^.=.*.|.~.q N <.<.W w.N N q k.'.].l.V.>.@+h.7 |+",
"1+[+8 f 8+r < < < < < N n.6+9+6+6+6+X.X.6+&+X.W.W.*+W.W.W.6+4+X.X.7+7+6+*+X._+o.O Q Y Q < < < < < < < < < < w.O {.W Y S.< /+7 |+",
"1+D 7 J b C < < < < < < < 4+Q.6+9+6+>+X.X.&+&+6+*+>+>+>+>+>+X.X.7+7+6+>+*+X.< < < < < < < < < < < Q.X.< < < < < < < < < r h 6 |+",
"1+8+i t 6 r.n < < < < < 6+6+W.W.6+>+W.X.X.X.6+6+>+W.W.W.W.*+Q.7+7+7+6+*+*+X.< < < < < < < < < < Q.W.X.< < < < < < < < < D 6 t A.",
"B.:+T.5 i r.n < < < < < 6+9+*+W.W.*+>+*+X.X.X.X.W.W.W.W.*+Q.&+7+7+6+*+*+>+Q.< < < < < < < < < Q.>+W.X.< < < < < < < < 0+z d d a+",
"t.8+f f z r < < < < < < < 6+*+W.W.>+W.W.*+X.&+&+*+*+*+*+Q.&+7+7+X.*+Q.>+>+>+X.< < < < < < >+Q.W.W.Q.>+< < < < < < < n b+g d a c+",
"d+e+t 7 /+< < < < < < < < < Q.>+>+W.>+W.>+*+6+6+9+9+>+>+&+7+7+X.f+Q.W.W.*+>+X.< < < < < Q.Q.W.Q.*+X.< < < < < < < < } a t 5+9 P.",
"& L.d F r < < < < < < <.o.(+Q X.W.W.W.>+W.W.X.*+6+6+&+7+7+X.6+f+Q.>+W.W.*+*+X.S.Q W Q.Q.>+W.W.*+Q.X.< < < < < < < < n g+J 5+@.J.",
"* L.y /+< <.<.#.o q v.:.*.=./.(.X.W.>+W.W.W.>+W.&+&+X.X.6+&+&+>+&+W.>+W.*+*+X.;.Q.Q.W.W.*+Q.*+*+X.o v.<.<.< < < < < < h+h f E i+",
"* L.a n N 9.=.Y '.b.q.].^.*.*.^.*.X.W.W.W.>+W.W.&+&+&+&+&+&+>+>+W.W.W.>+*+Q.Q.Q.W.W.>+*+*+*+Q.*+X.^.P =.}.<.< < #.< =+,+7 5+3 J.",
"* L.a W ,.(.-.'.*.;.-.^.{.=.i.{.>.8.X.Q.Q.W.*+W.&+&+&+&+&+6+>+&+>+W.>+*+Q.Q.X.W.W.W.*+Q.*+*+*+Q.-.(.0.].].=.j.P [.Q [.j+1 t 5 ]+",
"* L.a O (.5.,.c.8.;.^.X #.<.<.v.<.w.v.X.*+W.*+&+&+&+&+&+4+9+>+W.W.>+*+*+Q.*+X.X.*+*+Q.*+Q.*+*+X.^.q.-.,.5.U./.;.(.=.*.7.| 6 f k+",
"* L.a #.S.W !.X <.X Q v.< < < < < < Q.*+W.*+*+Q.&+&+&+&+6+6+>+W.*+>+*+Q.7+*+X.*+X.Q.*+*+Q.*+X.Q Q o X W N 5.U.^.>.l+|.W r.g h i+",
"* L.a n < < < < < < < < < < < < < Q.W.W.6+W.6+*+Q.&+&+&+&+6+&+Q.*+*+Q.7+7+*+X.*+>+X.X.*+Q.X.< < < < < < < N [.{.k.7.Q < G f 1 m+",
"n+o+a n < < < < < < < < < < < < < Q.*+6+9+4+9+X.*+&+&+&+&+6+6+7+Q.Q.7+7+7+*+*+6+9+X.9+X.X.< < < < < < < < < w.v.#.w.< n G d 5 p+",
"@ q+9 A < < < < < < < < < < < < Q.*+W.6+&+6+9+X.W.>+&+&+&+&+4+6+6+7+7+7+7+*+*+6+7+X.7+X.< < < < < < < < < < < < < < < n B 7 5 ]+",
"t.^+d H r < < < < < < < < < < < Q.W.W.6+4+6+4+4+W.>+&+&+&+7+7+7+7+7+7+7+f+*+X.*+>+>+X.< < < < < < < < < < < < < < < < < m r.7 a+",
"t.^+t 7 r < < < < < < < < < < < Q.W.Q.W.W.*+*+*+Q.>+7+7+7+7+7+7+7+7+7+7+f+*+Q.*+>+>+X.< < < < < < < < < < < < < < < < < < C c r+",
"+ s+g 7 C < O 8.(+n.{.w.< U < < >+W.Q.W.W.*+*+*+X.>+7+7+7+7+7+7+7+7+7+f+*+Q.*+>+>+Q.< t+O b.Q Y u+Q 8.O j.8.N =+< U < < < r 7 v+",
"B.:+9 3 r X >.V.5.-.;.{.<.Q (+<.Q >+X.W.W.W.*+*+X.>+7+7+f+f+f+f+f+f+7+>+>+X.*+>+>+X.<..+_.(.=.;.;.x.*.p.,.U.7.W <.X ~.(+Q r 7 |+",
"w+x+6 @.T ^.-.>.y+^.0.].P p.>.8.;.5.X.W.W.W.*+*+X.Q.f+f+f+f+f+f+f+f+6+>+>+X.>+>+X.^.[.^.].>.*.^.^.U.>.].(.>.(.x.q.].8.,.^.=+7 |+",
"t.q+u d h z+b.O x.{.m.^.(.-.-.(.;.].].X.*+*+*+X.Q.P 6+6+X.X.X.X.X.6+(.X.X.Q.X.X.-.;.*.'.8.O 5.Y {.5.k.8.7.S.,.].].;.++-.5.` 7 |+",
"+ 8+i d H C w.v.A+v.$.O ;.l.5.^.P /./.b.X.X.X.Q.w.w.v.w.w.w.<.v.~.7._.7.=.9.8./.=.q.^.b.w.v.w.w.v.w.v.w.w.#.Q ,.>.m.^.i.N h.7 |+",
"B.:+9 g b+h.< < < < < v.Q ~.~.Q <.N W <.Q N < < < < < < < < < < < ~.Q <.N (+<.W N <.Q <.< < < < < < < < < < < W !.w.Q ~.n B g |+",
"1+B+i %+j l n < < < < < < < < < < < < < < < < < < < < < < < < < < < < < < < < < < < < < < < < < < < < < < < < < < < < n l j 5 v+",
"1+g.7 t %+| n < < < < < < < < < < < < < < < < < < < < < < < < < < < < < < < < < < < < < < < < < < < < < < < < < < < < n G d u C+",
"B.D+1 d 1 l =+< < < < < < < < < < < < < < < < < < < < < < < < < < < < < < < < < < < < < < < < < < < < < < < < < < < < < r.6 7 J.",
"@ E+d g D m < < < < < < < < < < < < < < < < < < < < < < < < < < < < < < < < < < < < < < < < < < < < < < < < < < < < < } g+i h i+",
"F+J u 7 r < < < < < < < #.#.< $.< #.$.#.#.#.< < < < < < < < < < < < $.< #.#.< w.#.< $.< < < < < < < < < < < < $.#.< < G 7 d 3 G+",
"H+J u 7 r < < < < < U W &.{.Y i.X 8.8.X 5.m.v.< < < < < < < < < < {.5.O P 7.O 7.P O 5.O < < < < < < < < < < w.b.7.Q ).I+8 5+H.~+",
"J+v 6 i | } U ~.Y !.Q 5.U.^.^.*.>.;.-.>.*.a.u+N O X Q o.Q Q O !.O _.*._.;.].K+-.'.>.*.L+j.N {.Q Q {.N S.O ~.8.-.M+,.-.b.| 6 0 k+",
"p h.F 5 7 B w.b.*.|.,.(.,.].-.,.(.p.>.(.,.;.a.5.;.9.|.;.x./.;.5.^.;.>.-.^.>.(.>.^.].L+;._.5.-.=.=.].l._.^.q.-.^.>.U.&.o b+g g+i+",
"p #.s 5+d | P -.0.(.-.5.!.b.:.Q 8.O O 8.X m.^.(.;.-.(.'.-.-.a.(.'.b.X b.M k.b.S.{.b.Q [.-.c.'.].].;.(.;.'.(.>.O X q.<.| 2 g B I ",
"p #.B K d 9 N+O+!.P+P+<.#.v.#.< v.#.#.v.#.v.Q+R+.+l.,.P =.5.n./.8.q #.v.#.#.v.#.v.v.< <.S+O+O =.=.Y >.7.b.T+T g+g+z v 7 6 E+/+I ",
"p q m B 8 1 1 U+b+ +V+r.E.E.r m C } } D+B B g+H z C h.A r C /+C A E.E.l } } r } h.l B r.w W+r.X+C Z.3+C Z.Y+3 5 %+d 7 Z+O.A n I ",
"p q < n D+B F i 7 f i 1 7 @.h r. +z | y 1 8 7 6 f g g g g g 7 c 8 1 @.c z | a | g+Z+K j `+6 i g g g g g 7 7 6 5 5 f s E.A U < I ",
"_ I e.e.e.e. @.@+@@@+@#@$@%@&@*@$@=@C+&@-@+@@@;@>@%@%@%@%@%@$@,@@@'@)@!@=@~@&@C+{@]@;@^@@@/@(@_@%@%@%@:@=@<@@@@@'+[@c+e.e.e.e.}@"};
