/* XPM */
static char * trapinch_xpm[] = {
"64 64 286 2",
"  	c #EDE6CD",
". 	c #E2D7AA",
"+ 	c #E1D5A7",
"@ 	c #E1D6A7",
"# 	c #E1D4A6",
"$ 	c #E1D3A5",
"% 	c #E1D3A6",
"& 	c #E0D2A5",
"* 	c #DECCA0",
"= 	c #DBC69B",
"- 	c #DBC49B",
"; 	c #DBC59B",
"> 	c #DCC79C",
", 	c #DFCFA2",
"' 	c #E0D1A4",
") 	c #DDCA9F",
"! 	c #DCC69C",
"~ 	c #DECDA1",
"{ 	c #E0D3A5",
"] 	c #DCC89D",
"^ 	c #DDC99E",
"/ 	c #DDC89D",
"( 	c #DFD1A4",
"_ 	c #E1D5A6",
": 	c #E7DEBC",
"< 	c #D9CA85",
"[ 	c #D8C880",
"} 	c #D8C77F",
"| 	c #D6C47C",
"1 	c #D4BE76",
"2 	c #D4BA72",
"3 	c #D4BB73",
"4 	c #D3BA72",
"5 	c #D2B66E",
"6 	c #D0B169",
"7 	c #D0B068",
"8 	c #D1B068",
"9 	c #D1B26A",
"0 	c #D2B76F",
"a 	c #D3BB73",
"b 	c #D2B56E",
"c 	c #D3B871",
"d 	c #D3B971",
"e 	c #D1B46C",
"f 	c #D1B169",
"g 	c #D0B069",
"h 	c #D3B870",
"i 	c #D1B36C",
"j 	c #D4BC74",
"k 	c #D6C27A",
"l 	c #D7C77F",
"m 	c #E8DFBD",
"n 	c #D9CA86",
"o 	c #D7C37B",
"p 	c #D5C078",
"q 	c #D1B46D",
"r 	c #D3B770",
"s 	c #D3BA73",
"t 	c #D2B56D",
"u 	c #D7C47C",
"v 	c #D5BF77",
"w 	c #D6C17A",
"x 	c #D6C27B",
"y 	c #D1B36B",
"z 	c #D2B770",
"A 	c #D6C37B",
"B 	c #D6C179",
"C 	c #D4BE77",
"D 	c #D7C47D",
"E 	c #D4BF77",
"F 	c #D7C67E",
"G 	c #D3B972",
"H 	c #D1B56E",
"I 	c #D1B56D",
"J 	c #D8C57F",
"K 	c #D9C982",
"L 	c #D9C881",
"M 	c #DAC984",
"N 	c #D9C882",
"O 	c #DACA83",
"P 	c #D7C57E",
"Q 	c #D6C07A",
"R 	c #D7C17B",
"S 	c #DACB84",
"T 	c #D8C881",
"U 	c #DAC982",
"V 	c #DACA84",
"W 	c #D7C37C",
"X 	c #D6BE79",
"Y 	c #D7C57D",
"Z 	c #D6BE78",
"` 	c #D4B973",
" .	c #D2B66F",
"..	c #DFD28F",
"+.	c #DFD28E",
"@.	c #DDD08B",
"#.	c #E0D491",
"$.	c #DED18C",
"%.	c #DED28D",
"&.	c #E0D490",
"*.	c #DCCF8A",
"=.	c #DED08D",
"-.	c #DED08C",
";.	c #D9C981",
">.	c #D9CA82",
",.	c #D8C981",
"'.	c #D9CA83",
").	c #E1D592",
"!.	c #DDD08A",
"~.	c #DFD490",
"{.	c #DCCF89",
"].	c #E0D591",
"^.	c #DED28E",
"/.	c #DCCE89",
"(.	c #DFD18F",
"_.	c #DCCD88",
":.	c #DFD18D",
"<.	c #DFD08E",
"[.	c #DBC984",
"}.	c #DACB85",
"|.	c #DED18D",
"1.	c #DFD390",
"2.	c #DBCD87",
"3.	c #DDD08C",
"4.	c #DED18B",
"5.	c #DCCE88",
"6.	c #E1D591",
"7.	c #E0D492",
"8.	c #DDCF8A",
"9.	c #DFD38E",
"0.	c #DBCC86",
"a.	c #DFD38F",
"b.	c #D5BF78",
"c.	c #D5BE76",
"d.	c #D8C783",
"e.	c #D4BD75",
"f.	c #D5BE77",
"g.	c #E0D390",
"h.	c #DFD48F",
"i.	c #E0D592",
"j.	c #E1D693",
"k.	c #DED28F",
"l.	c #DBCD86",
"m.	c #E1D692",
"n.	c #E7DEBD",
"o.	c #D6C17E",
"p.	c #D1B26B",
"q.	c #D4BC75",
"r.	c #DFD391",
"s.	c #DDCF8B",
"t.	c #D9CB84",
"u.	c #E1D593",
"v.	c #D8C982",
"w.	c #DACC85",
"x.	c #DACC86",
"y.	c #DBCC85",
"z.	c #DBCC87",
"A.	c #D8C582",
"B.	c #D2B971",
"C.	c #D8C87F",
"D.	c #D2B46D",
"E.	c #E6DCBB",
"F.	c #D5BF7C",
"G.	c #D2B46C",
"H.	c #D6C37C",
"I.	c #E4D6B7",
"J.	c #D2B774",
"K.	c #E3D2B4",
"L.	c #D1B370",
"M.	c #D8C980",
"N.	c #DDCF89",
"O.	c #DDD18C",
"P.	c #DDCE8A",
"Q.	c #D3B76F",
"R.	c #E3D2B5",
"S.	c #DBCD88",
"T.	c #DCCD87",
"U.	c #E1D694",
"V.	c #D0B26A",
"W.	c #D8C47E",
"X.	c #C87870",
"Y.	c #D9CA84",
"Z.	c #DBCE88",
"`.	c #F8B878",
" +	c #DED08B",
".+	c #D7C47E",
"++	c #E89848",
"@+	c #704040",
"#+	c #E1D491",
"$+	c #E4D4B5",
"%+	c #D1B471",
"&+	c #E6DABA",
"*+	c #D4BB78",
"=+	c #E8DEBC",
"-+	c #D5C07D",
";+	c #202020",
">+	c #E8DEBD",
",+	c #D8C683",
"'+	c #DBCE87",
")+	c #DCCE87",
"!+	c #D5C17E",
"~+	c #DCCC87",
"{+	c #404030",
"]+	c #E1D794",
"^+	c #D6C079",
"/+	c #DAC983",
"(+	c #F8F8F8",
"_+	c #D8C780",
":+	c #D8C682",
"<+	c #D7C37F",
"[+	c #D7C480",
"}+	c #D2B870",
"|+	c #D5C179",
"1+	c #E4D3B5",
"2+	c #D5C079",
"3+	c #DACB83",
"4+	c #DAC883",
"5+	c #D8C57E",
"6+	c #DED38F",
"7+	c #A8C060",
"8+	c #DCD08A",
"9+	c #D8F070",
"0+	c #E2D694",
"a+	c #E4D7B7",
"b+	c #D2B874",
"c+	c #D4BE7B",
"d+	c #789048",
"e+	c #D7C67F",
"f+	c #D7C380",
"g+	c #D8C784",
"h+	c #D4BD76",
"i+	c #D9C781",
"j+	c #E0D38F",
"k+	c #D7C581",
"l+	c #D5BD76",
"m+	c #E7DDBC",
"n+	c #E5D7B8",
"o+	c #D3B975",
"p+	c #E5D8B8",
"q+	c #DDCE89",
"r+	c #D0B36B",
"s+	c #D8C884",
"t+	c #D4BB74",
"u+	c #E0D391",
"v+	c #DCCA87",
"w+	c #DBCB86",
"x+	c #DDCD89",
"y+	c #DCCC88",
"z+	c #DBCB85",
"A+	c #DDCD8A",
"B+	c #D5BB74",
"C+	c #D5BC75",
"D+	c #D8C67F",
"E+	c #D4BA74",
"F+	c #D8C47D",
"G+	c #D4BA73",
"H+	c #D2B66D",
"I+	c #D1B56C",
"J+	c #D2B871",
"K+	c #E8DFBE",
"L+	c #DACB89",
"M+	c #D9C984",
"N+	c #D8C782",
"O+	c #D6C27E",
"P+	c #D5BF7B",
"Q+	c #D5C07B",
"R+	c #D5BE7A",
"S+	c #D3B974",
"T+	c #D1B26E",
"U+	c #D2B470",
"V+	c #D3B873",
"W+	c #D2B671",
"X+	c #D3BA75",
"Y+	c #D2B772",
"Z+	c #D3B874",
"`+	c #D5BF7A",
" @	c #D1B36F",
".@	c #D5BD78",
"+@	c #D2B571",
"@@	c #D4BA76",
"#@	c #D4B975",
"$@	c #D4BB77",
"%@	c #D5BE79",
"&@	c #D3B671",
"*@	c #D5C17C",
"=@	c #D8C580",
"  . + @ @ @ + # $ % # & * = - ; ; - > , # # ' ) ! > = ! ! ; ! ~ { ' ] - ; ; - ; ^ ' # # , > ! ! = > = - / ( # # $ # + @ @ @ @ _ ",
": < [ [ } } | 1 2 2 3 4 5 6 7 7 8 7 9 0 3 a 4 b 0 3 5 c d 9 9 0 a 4 e f 7 8 g f e d 3 3 h e 4 c 5 3 5 f i 4 3 3 a j k l } [ [ [ ",
"m n [ } o p j q 7 7 9 r s 4 2 4 4 4 h e t 4 4 3 p u v w x a 4 4 s s 4 2 2 4 2 4 0 y z 4 4 j A B C D E 4 4 d q t 0 e 4 v w F [ [ ",
"m n } A G t 5 5 H I s J K L M N K O P Q R F F F l [ l } } F F F L S T U O [ V K W X W F F F } } l [ l F F Y Q w W Z ` t  .p F [ ",
"m n u 4 e d w P D | M ..+.@.#.$.%.&.*.=.-.S ;.>.>.,.'.K K '.,.'.@.).!.+.~.{.].^./.(._.K ;.'.;.K '.,.>.K ;.S :.-./.<.[.j y 5 B } ",
"m n k 0 h k }.|.*./.1.#.#.].#.#.#.&.#.#.#.%.2.3.4.2.|.{.5.%.2.@.#.&.#.#.#.6.#.#.7.&.#.8.2.9.2.8.|.0.$.!.2.a.#.#.7.a.0.b.y 9 c.l ",
"m d.e.5 f.S |.).&.#.g./.@.+.5.|.-.5.+.{.8.6.h.i.].a.).&.&.j.a.#.^.2.a.@./.&.5.@.k.l.a.#.1.j.1.#.m.a.).].1.)./.@.a.}.[ k d y G k ",
"n.o.e p.q._.&.@...r.0.,.>.>.;.K K ,.>.;.K {.].|.|.i.s.a.~.8.].$.>.T >.>.,.'.;.K K T t.+.i./.#...@.u.@.+.).2.v.K >.T [ } k t 9 G ",
": o.e 6 5 x }.S w.x.,.[ [ [ [ [ [ [ [ [ [ >.l.S S 2.'.y.0.'.l.S [ [ [ [ [ [ [ [ [ [ T }.z.'.0.}.'.2.'.}.2.K [ [ [ [ [ ,.| 5 7 y ",
"m A.3 t B.B } [ [ [ [ [ [ [ [ [ [ [ [ [ [ [ [ [ [ [ [ [ [ [ [ [ [ [ [ [ [ [ [ [ [ [ [ [ C.[ C.[ [ [ [ [ [ [ [ [ [ [ [ [ A 5 7 t ",
"m d.e.5 f.} [ [ [ [ [ [ [ [ [ [ [ [ [ [ [ [ [ [ [ [ [ [ [ [ [ [ [ [ [ [ [ [ [ [ [ [ [ [ [ [ [ [ [ [ [ [ [ [ [ [ [ [ [ Y c.D.t 1 ",
"E.F.e y v } [ [ [ [ [ [ [ [ [ [ [ [ [ [ [ [ [ [ [ [ [ [ [ [ [ [ [ [ [ [ [ [ [ [ [ [ [ [ [ [ [ [ [ [ [ [ [ [ [ [ [ [ [ p G.9 3 H.",
"I.J.f e p } [ [ [ [ [ [ ;.K ,.K ;.,.K ;.;.K [ [ [ [ [ [ [ [ [ [ [ [ K ;.,.K ,.;.K T K ;.[ [ [ [ [ [ [ [ [ [ [ [ [ [ [ b.i 6 t f.",
"K.L.y 3 u [ ,.[ [ M.[ >.{.@.2.@.N.2.@.5.5.O.S [ [ M.[ [ [ [ M.T T V 3./.2.%.0.P.$.w.3./.;.[ M.T [ M.[ T M.[ [ [ [ [ [ H.3 e Q.p ",
"R.L.5 A [ }.2.S 0.2.S 5.#.i.a.i.#.a.).1.&.j.@.S }.S.V l.2.O _.w.}.$.u.&.a.j...#.m.^.u.#.5.O T.0.V 5.S y.T.K [ [ [ [ [ Y c.t 2 A ",
"R.L. .A S ^.).|.1.#.|.].a.$.i.|.+.i.3.#.&.@.).+.^.m.$.&.].@.u.k.|.j.@.a.i.8.).a.O.U.3.a.).@.).1.O.j.|.a.m.5.K >.S ;.O D h V.9 3 ",
"R.L.5 W.%.#.a.).&.a.).|.x.S 2.}.w.2.t.l.0.V !.X.X.X.X.X.X.X.a.].).8.Y.w.2.O T.0.t.Z.Y.x.^.j.a.~.m.%.).#.a.u.8.$.~.5.9.s.w q 6 s ",
"R.L.5 D 8.8.2.@./._.$.0.[ [ [ [ [ [ [ [ [ X.X.`.`.`.`.`.`.`.X.X.X.K [ [ [ [ [ [ [ [ [ [ }.%.l./.-.}. +8.0.a.#.#.i.#.].@..+ .r p ",
"R.L.0 A ,.T [ ,.T [ ,.[ [ [ [ [ [ [ [ [ X.`.`.`.`.`.`.`.`.`.`.`.++X.@+[ [ [ [ [ [ [ [ [ [ ,.[ T ,.[ ,.T [ t.a.+./.#+!.K A 0 2 A ",
"$+%+0 A [ [ [ [ [ [ [ [ [ [ [ [ [ [ [ X.@+@+X.X.`.`.`.`.`.`.`.`.++++++@+[ [ [ [ [ [ [ [ [ [ [ [ [ [ [ [ [ [ '.'.v.O K [ A 5 p.j ",
"&+*+h k [ [ [ [ [ [ [ [ [ [ [ [ [ [ X.`.`.`.`.X.`.`.`.`.`.`.`.`.`.++++++@+[ [ [ [ [ [ [ [ [ [ [ [ [ [ [ [ [ [ [ [ [ [ [ A  .7 G ",
"=+-+5 3 u [ [ [ [ [ [ [ [ [ [ [ [ X.++`.`.`.`.`.X.`.`.`.`.`.`.`.`.++++++++;+[ [ [ [ [ [ [ [ [ [ [ [ [ [ [ [ [ [ [ [ [ [ F c.t 4 ",
": -+y y v } [ [ [ [ [ [ [ [ [ [ [ @+`.`.`.`.`.`.X.X.@+@+@+X.`.`.`.++++++++++;+[ [ [ [ [ [ [ [ [ [ [ [ [ [ [ [ [ [ [ [ [ [ F 4 d ",
": o.e y v } ,.'.K K '.;.[ [ [ [ [ @+`.`.`.`.`.`.`.`.`.`.`.@+`.`.++++++++++++@+[ [ [ [ [ T '.v.K '.,.'.>.,.'.v.[ [ [ [ [ [ F a y ",
">+,+q.5 v [ l.9.@.8.a.'+[ [ ,.[ @+++++`.++`.`.`.`.`.`.`.`.@+`.`.++++++++++++++;+[ ,.[ M.2.g./.@.a.2.9.$.5.g./.;.[ ,.[ T ,.l a 6 ",
"=+A.3 5 v 0.9.).#.#.6.a.)+0.8.l.@+++`.++`.++`.`.`.`.`.`.`.X.`.++++++++++++++++@+y.@.w.S.1.i.&.#.i.&.#.#.&.i.&./.w.@.0.T.@.K a 6 ",
": !+e 9 q.~+g.@.^.a.8.&.~.+.).9.@+++++`.++`.++`.`.`.`.`.++++X.++++++++++++X.{+X.;+]+%.1.#.5.#.+.8.i.!.%.#./.~.&.%.j.+.a.7.}.a 6 ",
": o.e 6 I ^+/+'.O S >.0.g.i.|.i.@+++++++++++++++++++++++++++@+++++++++++++{+(+;+;+@.).1.w.K S O >.}.>.O S K }...j.$.].#.2._+a 6 ",
">+,+q.t d A } [ [ [ [ K 2.Z.}.Z.@+++++++++++++++++++++++++++@+++X.@+@+++++X.;+X.;+S /.2.,.[ [ [ [ [ [ [ [ [ T 0.{.S 5._.K F s 6 ",
"=+:+j q d k } [ [ [ [ [ M.M.T ,.;+++++++++++++++++++++++++++@+@+X.X.@+++++X.X.X.;+[ M.T [ [ [ [ [ [ [ [ [ [ [ T M.[ M.,.l p 0 7 ",
"m <+h 9 9 j F [ [ [ [ [ [ [ [ [ [ @+++++++++++++++++++++++++++++++++@+++X.X.X.X.;+[ [ [ [ [ [ [ [ [ [ [ [ [ [ [ [ [ [ ,.| z 6 9 ",
"m d.c.G.6 3 Y [ [ [ [ [ [ [ [ [ [ @+++++++++++++++++++++++++++++++++@+X.X.X.X.X.;+[ [ [ [ [ [ [ [ [ [ [ [ [ [ [ [ [ [ [ k b 6 d ",
"=+[+d e d k l [ [ [ [ [ [ [ [ [ [ [ X.++++++++++++++++++++++++++++X.@+X.X.X.X.;+@+@+[ [ [ [ [ [ [ [ [ [ [ [ [ [ [ [ [ x 4 y d k ",
"&+*+9 y 1 l [ [ [ [ [ [ [ [ [ [ [ [ @+++X.++++++++++++++++++++X.X.X.@+@+@+X.X.;+`.`.@+X.[ [ [ [ [ [ [ [ [ [ [ [ [ [ [ v y 6 }+|+",
"1+%+f 5 2+} [ [ [ [ [ T S S >.S S >.}.@+++X.++X.++++++++X.X.X.X.X.X.X.X.X.X.@+`.`.`.`.X.@+[ [ [ [ [ [ [ [ [ [ [ [ [ [ 2+5 V.q 1 ",
"R.L.I v F T K ,.;.K [ O ^.1.8.a.^.!.&.$.@+++X.X.X.X.X.X.X.X.X.X.X.X.X.X.X.@+{+++++++`.`.@+[ K ;.T K T ;.K [ [ [ [ [ [ F v 5 a H.",
"R.L. .A T /.|._.s.-.2.%.].&.).#.&.].&.#.].@+X.X.X.X.X.X.X.X.X.X.X.X.X.X.@+{+X.X.++++++++X.@+%.!.l...S.8.+.V [ [ [ [ [ A 4 y 5 b.",
"R.L. .D 5.~.).g.#.#.1.#.@.{.+.8.@.^.5.$.$.5.;+@+X.X.X.X.X.X.X.X.X.X.@+@+{+{+X.X.X.++++++X.@+6.#.a.).1.#.).|.w.0.{.3+5.4+3 9 6 4 ",
"R.L.5 5+6+1.$.#.^.%.i.!.K K '.K K '.;.>.>.;.2.~.;+;+@+X.X.X.X.X.@+{+{+{+{+X.X.X.X.++++++X.7+@+9.].8+#.a.@.u.%...).@.#.|.W 5 y j ",
"R.L.5 u 0.y.O 0.}.S l.'.[ [ [ [ [ [ [ [ [ [ ;.x.w.'.0.;+;+;+;+@+{+{+{+X.X.X.X.X.7+9+9+X.9+@+@+}.0.'.0.}.'./.i.#.+.0+a.2.u 0 4 A ",
"R.L.0 A ,.[ [ [ [ [ [ [ [ [ [ [ [ [ [ [ [ [ [ [ [ [ T [ @+@+X.X.{+X.X.X.X.X.X.7+@+@+@+9+@+X.@+[ T [ T [ [ K 8./.x.@.l.,.A 0 0 p ",
"a+b+0 A [ [ [ [ [ [ [ [ [ [ [ [ [ [ [ [ [ [ [ [ [ [ [ @+X.@+7+X.{+X.X.X.X.X.7+@+X.X.X.@+X.X.++@+[ [ [ [ [ [ ;.;.,.;.,.[ A 5 f s ",
"E.c+}+p } [ [ [ [ [ [ [ [ [ [ [ [ [ [ [ [ [ [ [ [ [ @+++X.X.@+7+7+@+7+7+7+7+d+@+X.X.++@+X.++++@+[ [ [ [ [ [ [ [ [ [ [ [ | d V.4 ",
": -+q Q.k [ [ [ [ [ [ [ [ [ [ [ [ [ [ [ [ [ [ [ [ [ @+++++X.@+;+@+d+@+d+d+d+;+;+@+++++++@+++X.X.;+[ [ [ [ [ [ [ [ [ [ [ } k }+4 ",
": -+p.y v } [ [ [ [ [ [ [ [ [ [ [ [ [ [ [ [ [ [ [ @+++++X.;+X.X.;+;+;+;+;+;+[ [ @+++++++;+X.X.X.;+[ [ [ [ [ [ [ [ [ [ [ [ e+s 5 ",
"=+f+h G.v } '.T.w.}.S.V [ [ [ [ [ C.[ [ C.[ ;.2.l.@+X.X.;+@+X.X.;+,.[ [ C.[ C.[ [ @+X.X.X.@+;+;+5.'.)+0.3+/.S [ [ C.[ [ [ e+a 9 ",
"m g+h+0 v K {.#.^.|.7.s.>.K O K '.3+>.O O ;.2.&.~.@.;+;+|.i.;+;+&.x.K '.O ;.O '.K ;+X.X.X.;+O.+.].8.#.a.@.j.O.S K S >.>.S [ a 6 ",
">+f+z q f.5.#.1.#.i.1.#.@.N.a.8.@.a./.%.|./.#.&.1.u.a.#.i.a.).#.a.#.5.$.a.2.a.-.5.&.;+;+;++.).#.a.j.a.&.m.9.i.|.5.~.8.@.a.V 3 6 ",
": -+p.6 c i+8.2.*.@.2.$.].].#.#.].].#.#.#.].a.Z.5.O.l.*.@.0.$./.2.1.#.#.#.#.].].#.#.#.#.|.y.-.8.l.%.2.{.$.0.$.#.#.#.#.#.+./+a 6 ",
"=+<+}+y  .^+L ;.K >.T V |.a.*.+.|.*.a.@.-.~.l.,.;.>.,.K >.;.>.K ;.2.g.$.8.#.{.$.a.5.j+$.O ,.>.K ,.>.,.K >.,.>. +g./.+.+.w.[ a 6 ",
"m d.e.5 s o } [ [ [ [ [ 3+S >.S V >.}.'.'.}.,.[ [ [ [ [ [ [ [ [ [ ,.}.O >.w.>.3+}.K }.O [ [ [ [ [ [ [ [ [ [ [ '.}.K S S [ Y d 6 ",
"m [+d y 5 v F [ [ [ [ [ [ [ [ [ [ [ [ [ [ [ [ [ [ [ [ [ [ [ [ [ [ [ [ [ [ [ [ [ [ [ [ [ [ [ [ [ [ [ [ [ [ [ [ [ [ [ [ [ Y j e g ",
">+k+s y g 4 Y [ [ [ [ [ [ [ [ [ [ [ [ [ [ [ [ [ [ [ [ [ [ [ [ [ [ [ [ [ [ [ [ [ [ [ [ [ [ [ [ [ [ [ [ [ [ [ [ [ [ [ [ [ A  .7 e ",
"m d.e.e e l+F [ [ [ [ [ [ [ [ [ [ [ [ [ [ [ [ [ [ [ [ [ [ [ [ [ [ [ [ [ [ [ [ [ [ [ [ [ [ [ [ [ [ [ [ [ [ [ [ [ [ [ [ [ H.5 G.e.",
"m+o.5 y j Y [ [ [ [ [ [ [ [ [ [ [ [ [ [ [ [ [ [ [ [ [ [ [ [ [ [ [ [ [ [ [ [ [ [ [ [ [ [ [ [ [ [ [ [ [ [ [ [ [ [ [ [ [ } w 5 4 A ",
"n+o+7 9 v } [ [ [ [ [ [ T T [ T [ [ T [ T T [ [ [ [ [ [ [ [ [ [ [ [ T [ T T [ [ T [ T [ [ [ [ [ [ [ [ [ [ [ [ [ T [ T A 4 y 5 v ",
"p+o+7 9 v } [ [ [ [ [ ;._.{.}.q+_.w.8.0.z.8.'.C.[ [ [ [ [ [ [ [ [ '.8.2.w.@.}.5.8.S 8.2.[ [ [ [ [ [ [ [ [ [ [ 2.s.S /.V j r+7 4 ",
"m+o.5 y 3 u } ,.w.y.'.2.g.].^.#.g.+.)...a.).!.3+S 0.'.w.y.>.0.S O @.).g.+.j.%.~.).|.].a.2.>.0.S '.2.'.S 0.>.l...).|.#.$.D 5 i q.",
"m s+v t e 1 } w.+.a.s.a.1.a.i...a.].+.#.&.^.].$.$.#.8.+.a.{.&.|.@.).+.g.].|.i.1.%.j.+.g.&./.&.%.8.).!.|.&.{.g.&.+.u.+.0.A 0 t+u ",
"m n A 5 7 4 N ^.#.#.i.a.2.x.8.0.2.{.w./.5.}.|.i.#.&.i.#.&.).&.#.#+$.w._.*.V 8.T.w.@.w._.a.i.u+#.].&.].#.g.i.g.5.}.s.0.A 4 I v } ",
"m n Y j e 5 R v+~+w+x+}.,.T ,.T ,.,.T ,.,.T '.y+y+2.+.8.{.a.Z.3.%.'.,.,.,.T ,.T T ,.,.;.z+A+w+s.9.2.+.-._...4+^+b.p b.d e c k } ",
"m n } u q.Q.h G l+f.B+b.A A | F F Y l Y A A B C+C+W D+Y D D+D P 5+A A A Y } Y F l W A x b.E+b..+D+D J 5+D F+G+i y y 5 0 d k F [ ",
"m n [ [ Y k 1 0 H+5 e 0 h 0 4 p v q.|+e.h d h I+e  .5 0 0 5 0 }+d d z 0 q.k q.v B G J+d 0 y t  . .0  .0 0 h G.9 9 y j B A } [ [ ",
"K+L+K M+M+M+N+O+P+Q+Q+R+S+T+U+S+V+W+X+Y+Z+`+Q+`+X+ @T+T+T+T+ @X+`+.@+@T+W+@@W+V+#@+@$@P+P+%@&@T+T+T+T+T++@.@P+Q+Q+*@=@M+M+M+M+K "};
